<svg width="27" height="24" viewBox="0 0 27 24" fill="none" xmlns="http://www.w3.org/2000/svg">
<path d="M4 2C4 2.75 3.66667 3.32292 3 3.71875V23.5C3 23.6354 2.95052 23.7526 2.85156 23.8516C2.7526 23.9505 2.63542 24 2.5 24H1.5C1.36458 24 1.2474 23.9505 1.14844 23.8516C1.04948 23.7526 1 23.6354 1 23.5V3.71875C0.333333 3.32292 0 2.75 0 2C0 1.44792 0.195312 0.976562 0.585937 0.585938C0.976562 0.195312 1.44792 0 2 0C2.55208 0 3.02344 0.195312 3.41406 0.585938C3.80469 0.976562 4 1.44792 4 2ZM27 3V14.9219C27 15.1823 26.9349 15.3828 26.8047 15.5234C26.6745 15.6641 26.4687 15.8073 26.1875 15.9531C23.9479 17.1615 22.026 17.7656 20.4219 17.7656C19.7865 17.7656 19.1432 17.651 18.4922 17.4219C17.8411 17.1927 17.276 16.9427 16.7969 16.6719C16.3177 16.401 15.7161 16.151 14.9922 15.9219C14.2682 15.6927 13.526 15.5781 12.7656 15.5781C10.7656 15.5781 8.34896 16.3385 5.51562 17.8594C5.33854 17.9531 5.16667 18 5 18C4.72917 18 4.49479 17.901 4.29687 17.7031C4.09896 17.5052 4 17.2708 4 17V5.40625C4 5.07292 4.16146 4.78646 4.48437 4.54688C4.70312 4.40104 5.11458 4.17708 5.71875 3.875C8.17708 2.625 10.3698 2 12.2969 2C13.4115 2 14.4531 2.15104 15.4219 2.45312C16.3906 2.75521 17.5312 3.21354 18.8437 3.82812C19.2396 4.02604 19.6979 4.125 20.2187 4.125C20.7812 4.125 21.3932 4.01562 22.0547 3.79688C22.7161 3.57812 23.2891 3.33333 23.7734 3.0625C24.2578 2.79167 24.7161 2.54688 25.1484 2.32812C25.5807 2.10938 25.8646 2 26 2C26.2708 2 26.5052 2.09896 26.7031 2.29688C26.901 2.49479 27 2.72917 27 3Z" fill="white"/>
</svg>
