<svg width="94" height="80" viewBox="0 0 94 80" fill="none" xmlns="http://www.w3.org/2000/svg">
<path d="M8.33333 80H85C89.5933 80 93.3333 76.26 93.3333 71.6667V21.6667C93.3333 17.0733 89.5933 13.3333 85 13.3333H67.9667L66.2133 6.31334C65.7643 4.50895 64.724 2.90687 63.2583 1.76262C61.7927 0.61837 59.9861 -0.00215568 58.1267 5.62681e-06H35.2033C33.3443 -0.00199356 31.5382 0.618656 30.0731 1.76294C28.608 2.90723 27.5684 4.50922 27.12 6.31334L25.3667 13.3333H8.33333C6.12401 13.336 4.00593 14.2148 2.4437 15.777C0.88147 17.3393 0.00264643 19.4573 0 21.6667V71.6667C0 76.26 3.74 80 8.33333 80ZM85 76.6667H8.33333C5.57667 76.6667 3.33333 74.4233 3.33333 71.6667V37.2333L38.3333 47.6033V58.3333C38.3333 58.7754 38.5089 59.1993 38.8215 59.5118C39.134 59.8244 39.558 60 40 60H53.3333C53.7754 60 54.1993 59.8244 54.5118 59.5118C54.8244 59.1993 55 58.7754 55 58.3333V47.6033L90 37.2333V71.6667C90 74.4233 87.7567 76.6667 85 76.6667ZM46.6667 53.3333C46.2246 53.3333 45.8007 53.5089 45.4882 53.8215C45.1756 54.134 45 54.558 45 55V56.6667H41.6667V50H51.6667V56.6667H48.3333V55C48.3333 54.558 48.1577 54.134 47.8452 53.8215C47.5326 53.5089 47.1087 53.3333 46.6667 53.3333ZM51.6667 46.3567V46.6667H41.6667V43.3333H51.6667V46.3567ZM30.3533 7.12001C30.623 6.03734 31.2474 5.07616 32.1271 4.38983C33.0067 3.7035 34.0909 3.33155 35.2067 3.33334H58.13C59.2454 3.33272 60.3291 3.7051 61.2085 4.39125C62.0879 5.0774 62.7127 6.03791 62.9833 7.12001L64.5333 13.3333H28.8L30.3533 7.12001ZM3.33333 21.6667C3.33333 18.91 5.57667 16.6667 8.33333 16.6667H85C87.7567 16.6667 90 18.91 90 21.6667V33.7533L55 44.1233V41.6667C55 41.2246 54.8244 40.8007 54.5118 40.4882C54.1993 40.1756 53.7754 40 53.3333 40H40C39.558 40 39.134 40.1756 38.8215 40.4882C38.5089 40.8007 38.3333 41.2246 38.3333 41.6667V44.1267L3.33333 33.7533V21.6667Z" fill="white"/>
</svg>
