<svg width="94" height="80" viewBox="0 0 94 80" fill="none" xmlns="http://www.w3.org/2000/svg">
<g clip-path="url(#clip0_1_15916)">
<path d="M7.35632 29.6094H12.8736V34.9427H7.35632V29.6094ZM16.1839 29.6094H21.5173V34.9427H16.1839V29.6094ZM7.35632 38.0692H12.6897V43.5864H7.35632V38.0692ZM16.1839 38.0692H21.7012V43.5864H16.1839V38.0692ZM7.35632 46.8967H12.6897V52.2301H7.35632V46.8967ZM16.1839 46.8967H21.7012V52.2301H16.1839V46.8967ZM7.35632 55.1726H12.6897V60.6898H7.35632V55.1726ZM16.1839 55.1726H21.7012V60.6898H16.1839V55.1726ZM7.35632 64.0002H12.6897V69.3335H7.35632V64.0002ZM16.1839 64.0002H21.7012V69.3335H16.1839V64.0002Z" fill="#4A4A4A"/>
<path d="M93.4253 21.1494H67.8621V0H25.5632V21.1494H0V80H93.4253V21.1494ZM25.5632 76.6897H3.12643V24.4598H25.5632L25.5632 76.6897ZM53.3333 76.8736H40.0919V57.5632H53.3333V76.8736ZM36.9655 54.2529V76.8735H28.8736V3.12643H64.5517L64.3678 76.8736H56.6437V54.2529H36.9655V54.2529ZM90.115 76.6897H67.8621V24.4598H90.115V76.6897Z" fill="#4A4A4A"/>
<path d="M71.908 29.6091H77.2414V34.9424H71.908V29.6091ZM80.5517 29.6091H86.069V34.9424H80.5517V29.6091ZM71.7241 38.0689H77.2414V43.5861H71.7241V38.0689ZM80.7356 38.0689H86.069V43.5861H80.7356V38.0689ZM71.7241 46.8964H77.2414V52.2298H71.7241V46.8964ZM80.7356 46.8964H86.069V52.2298H80.7356V46.8964ZM71.7241 55.1723H77.2414V60.6895H71.7241V55.1723ZM80.7356 55.1723H86.069V60.6895H80.7356V55.1723ZM71.7241 63.9999H77.2414V69.3332H71.7241V63.9999ZM80.7356 63.9999H86.069V69.3332H80.7356V63.9999ZM33.1034 25.9309H38.6207V31.2643H33.1034V25.9309ZM54.4368 25.9309H59.954V31.2643H54.4368V25.9309ZM33.1034 34.3907H38.6207V39.9079H33.1034V34.3907ZM54.6207 34.3907H59.954V39.9079H54.6207V34.3907ZM33.1034 43.2183H38.6207V48.5516H33.1034V43.2183ZM54.6207 43.2183H59.954V48.5516H54.6207V43.2183ZM43.7701 25.747H49.2873V31.2643H43.7701V25.747ZM33.1034 17.2872H38.6207V22.6206H33.1034V17.2872ZM54.4368 17.2872H59.954V22.6206H54.4368V17.2872ZM43.7701 17.2872H49.2873V22.6206H43.7701V17.2872ZM33.1034 8.64355H38.6207V13.9769H33.1034V8.64355ZM54.4368 8.64355H59.954V13.9769H54.4368V8.64355ZM43.7701 8.64355H49.2873V13.9769H43.7701V8.64355ZM43.7701 34.3907H49.2873V39.724H43.7701V34.3907ZM43.7701 43.0344H49.2873V48.5516H43.7701V43.0344Z" fill="#4A4A4A"/>
</g>
<defs>
<clipPath id="clip0_1_15916">
<rect width="93.4253" height="80" fill="white"/>
</clipPath>
</defs>
</svg>
