<svg width="107" height="80" viewBox="0 0 107 80" fill="none" xmlns="http://www.w3.org/2000/svg">
<path d="M79.8363 80H1.90348C0.933366 80 0.286621 79.4649 0.286621 78.6622V1.33779C0.286621 0.535117 0.933366 0 1.90348 0H79.8363C80.8064 0 81.4531 0.535117 81.4531 1.33779V37.8595C81.4531 38.6622 80.8064 39.1973 79.8363 39.1973C78.8661 39.1973 78.2194 38.6622 78.2194 37.8595V2.67559H3.52035V77.3244H78.2194V66.2207C78.2194 65.4181 78.8661 64.8829 79.8363 64.8829C80.8064 64.8829 81.4531 65.4181 81.4531 66.2207V78.6622C81.4531 79.3311 80.6447 80 79.8363 80Z" fill="#4A4A4A"/>
<path d="M21.7907 18.7296C17.7485 18.7296 14.5148 16.054 14.5148 12.7095C14.5148 9.36504 17.7485 6.68945 21.7907 6.68945C25.8328 6.68945 29.0665 9.36504 29.0665 12.7095C29.0665 16.054 25.8328 18.7296 21.7907 18.7296ZM21.7907 9.23126C19.527 9.23126 17.7485 10.7028 17.7485 12.5757C17.7485 14.4486 19.527 15.9202 21.7907 15.9202C24.0543 15.9202 25.8328 14.4486 25.8328 12.5757C25.8328 10.8366 24.0543 9.23126 21.7907 9.23126Z" fill="#4A4A4A"/>
<path d="M35.2109 32.7768H8.37095C7.40083 32.7768 6.75409 32.2417 6.75409 31.439C6.75409 26.0878 10.7962 21.4055 16.9403 19.6664C17.5871 19.5326 18.3955 19.6664 18.7189 20.2015C19.3656 21.0042 20.4974 21.4055 21.6292 21.4055C22.761 21.4055 23.8928 21.0042 24.7013 20.2015C25.1863 19.6664 25.8331 19.5326 26.4798 19.6664C32.6239 21.4055 36.666 26.0878 36.666 31.439C36.8277 32.1079 36.181 32.7768 35.2109 32.7768ZM10.1495 30.1012H33.594C33.1089 26.7567 30.3603 23.8136 26.6415 22.4758C25.348 23.546 23.7311 24.0811 21.7909 24.0811C20.0124 24.0811 18.2338 23.546 17.102 22.4758C13.2215 23.8136 10.6346 26.7567 10.1495 30.1012Z" fill="#4A4A4A"/>
<path d="M69.9738 11.2371H45.0741C44.104 11.2371 43.4572 10.702 43.4572 9.89932C43.4572 9.09664 44.104 8.56152 45.0741 8.56152H69.9738C70.9439 8.56152 71.5906 9.09664 71.5906 9.89932C71.5906 10.702 70.7822 11.2371 69.9738 11.2371Z" fill="#4A4A4A"/>
<path d="M69.9738 21.5379H45.0741C44.104 21.5379 43.4572 21.0028 43.4572 20.2001C43.4572 19.3974 44.104 18.8623 45.0741 18.8623H69.9738C70.9439 18.8623 71.5906 19.3974 71.5906 20.2001C71.5906 21.0028 70.7822 21.5379 69.9738 21.5379Z" fill="#4A4A4A"/>
<path d="M69.9738 31.8396H45.0741C44.104 31.8396 43.4572 31.3045 43.4572 30.5019C43.4572 29.6992 44.104 29.1641 45.0741 29.1641H69.9738C70.9439 29.1641 71.5906 29.6992 71.5906 30.5019C71.5906 31.3045 70.7822 31.8396 69.9738 31.8396Z" fill="#4A4A4A"/>
<path d="M53.6431 42.1404H8.37095C7.40083 42.1404 6.75409 41.6053 6.75409 40.8026C6.75409 40 7.40083 39.4648 8.37095 39.4648H53.6431C54.6132 39.4648 55.26 40 55.26 40.8026C55.26 41.6053 54.4515 42.1404 53.6431 42.1404Z" fill="#4A4A4A"/>
<path d="M49.9243 52.575H8.37095C7.40083 52.575 6.75409 52.0399 6.75409 51.2372C6.75409 50.4345 7.40083 49.8994 8.37095 49.8994H49.9243C50.8944 49.8994 51.5412 50.4345 51.5412 51.2372C51.5412 52.0399 50.8944 52.575 49.9243 52.575Z" fill="#4A4A4A"/>
<path d="M53.6431 62.8758H8.37095C7.40083 62.8758 6.75409 62.3407 6.75409 61.538C6.75409 60.7353 7.40083 60.2002 8.37095 60.2002H53.6431C54.6132 60.2002 55.26 60.7353 55.26 61.538C55.26 62.3407 54.4515 62.8758 53.6431 62.8758Z" fill="#4A4A4A"/>
<path d="M69.9734 73.1766H8.37095C7.40083 73.1766 6.75409 72.6414 6.75409 71.8388C6.75409 71.0361 7.40083 70.501 8.37095 70.501H69.9734C70.9435 70.501 71.5903 71.0361 71.5903 71.8388C71.5903 72.6414 70.7818 73.1766 69.9734 73.1766Z" fill="#4A4A4A"/>
<path d="M75.4709 67.9596C70.4586 67.9596 65.608 66.3542 61.8892 63.2773C58.1705 60.2004 56.2302 56.3208 56.2302 52.0399C56.2302 47.7589 58.1705 43.7455 61.8892 40.8024C65.4463 37.8592 70.2969 36.1201 75.4709 36.1201C80.6448 36.1201 85.4954 37.7255 89.0525 40.8024C95.52 46.1536 96.4901 54.5817 91.4778 60.8693C90.8311 61.8057 89.861 62.6084 89.0525 63.4111C88.0824 64.08 87.1123 64.7489 85.9805 65.4178C82.7468 67.1569 79.1897 67.9596 75.4709 67.9596ZM75.4709 38.7957C71.267 38.7957 67.2249 40.1335 64.1529 42.6753C61.0808 45.2171 59.4639 48.5616 59.4639 52.0399C59.4639 55.5181 61.0808 58.8626 64.1529 61.4044C69.4885 65.8191 77.8962 66.488 84.2019 63.1435C85.0104 62.6084 85.9805 62.0733 86.7889 61.4044C87.5974 60.7355 88.2441 60.0666 88.8908 59.2639C93.0947 54.0465 92.1246 47.09 86.7889 42.6753C83.7169 40.1335 79.6747 38.7957 75.4709 38.7957Z" fill="#4A4A4A"/>
<path d="M100.694 78.1265H100.533C98.7541 78.1265 97.1373 77.4576 96.0055 76.3874L83.879 65.1499C83.5556 64.8824 83.3939 64.481 83.5556 64.0797C83.5556 63.6783 83.879 63.4108 84.2024 63.1432C85.1725 62.6081 85.9809 62.073 86.7893 61.4041C87.5978 60.7352 88.2445 60.0663 88.8913 59.2636C89.2146 58.9961 89.538 58.7285 90.0231 58.7285C90.5081 58.7285 90.9932 58.8623 91.3166 58.9961L104.898 69.0295C106.192 69.966 107 71.3038 107 72.7753C107 74.2469 106.353 75.5847 105.222 76.5212C103.928 77.5914 102.473 78.1265 100.694 78.1265ZM87.5978 64.481L98.5924 74.6482C99.0775 75.1834 99.8859 75.4509 100.694 75.4509C101.503 75.4509 102.311 75.1834 102.958 74.782C103.605 74.3807 103.928 73.578 103.766 72.9091C103.766 72.2402 103.443 71.5713 102.796 71.17L90.5081 62.073C90.0231 62.4743 89.538 62.8757 89.053 63.277C88.5679 63.6784 88.0828 64.0797 87.5978 64.481Z" fill="#4A4A4A"/>
</svg>
