<svg width="15" height="14" viewBox="0 0 15 14" fill="none" xmlns="http://www.w3.org/2000/svg">
<path d="M2.22222 1.11111C2.22222 1.52778 2.03704 1.84606 1.66667 2.06597V13.0556C1.66667 13.1308 1.63918 13.1959 1.5842 13.2509C1.52922 13.3058 1.46412 13.3333 1.38889 13.3333H0.833333C0.758102 13.3333 0.692998 13.3058 0.638021 13.2509C0.583044 13.1959 0.555556 13.1308 0.555556 13.0556V2.06597C0.185185 1.84606 0 1.52778 0 1.11111C0 0.804398 0.108507 0.542535 0.325521 0.325521C0.542535 0.108507 0.804398 0 1.11111 0C1.41782 0 1.67969 0.108507 1.8967 0.325521C2.11372 0.542535 2.22222 0.804398 2.22222 1.11111ZM15 1.66667V8.28993C15 8.43461 14.9638 8.54601 14.8915 8.62413C14.8192 8.70226 14.7049 8.78183 14.5486 8.86285C13.3044 9.53414 12.2367 9.86979 11.3455 9.86979C10.9925 9.86979 10.6351 9.80614 10.2734 9.67882C9.91175 9.55151 9.5978 9.41262 9.3316 9.26215C9.06539 9.11169 8.73119 8.9728 8.32899 8.84549C7.92679 8.71817 7.51447 8.65451 7.09201 8.65451C5.9809 8.65451 4.63831 9.07697 3.06424 9.92188C2.96586 9.97396 2.87037 10 2.77778 10C2.62732 10 2.49711 9.94502 2.38715 9.83507C2.2772 9.72512 2.22222 9.59491 2.22222 9.44444V3.00347C2.22222 2.81829 2.31192 2.65914 2.49132 2.52604C2.61285 2.44502 2.84144 2.3206 3.17708 2.15278C4.54282 1.45833 5.761 1.11111 6.8316 1.11111C7.45081 1.11111 8.02951 1.19502 8.56771 1.36285C9.1059 1.53067 9.73958 1.7853 10.4688 2.12674C10.6887 2.23669 10.9433 2.29167 11.2326 2.29167C11.5451 2.29167 11.8851 2.2309 12.2526 2.10938C12.6201 1.98785 12.9384 1.85185 13.2075 1.70139C13.4766 1.55093 13.7312 1.41493 13.9714 1.2934C14.2115 1.17188 14.3692 1.11111 14.4444 1.11111C14.5949 1.11111 14.7251 1.16609 14.8351 1.27604C14.945 1.386 15 1.5162 15 1.66667Z" fill="black"/>
</svg>
