<svg width="25" height="22" viewBox="0 0 25 22" fill="none" xmlns="http://www.w3.org/2000/svg">
<path d="M16.8945 0H8.10548C7.78191 0 7.51955 0.254403 7.51955 0.568181V3.01819H2.38614C1.07041 3.01814 0 4.05611 0 5.33191V19.5613C0 20.837 1.07041 21.875 2.38614 21.875H22.6139C23.9295 21.875 25 20.837 25 19.5613V5.33191C25 4.05611 23.9295 3.01814 22.6139 3.01814H17.4805V0.568181C17.4805 0.254356 17.2181 0 16.8945 0ZM8.69142 1.13636H16.3086V3.01819H8.69142V1.13636ZM22.6139 20.7388H2.38614C1.71661 20.7388 1.17188 20.2105 1.17188 19.5613V8.943L9.47267 11.9791V13.7073C9.47267 14.0211 9.73503 14.2755 10.0586 14.2755H14.9414C15.265 14.2755 15.5274 14.0211 15.5274 13.7073V11.9791L23.8281 8.94305V19.5613C23.8281 20.2105 23.2834 20.7388 22.6139 20.7388ZM10.6445 13.1392V11.4346H14.3555V13.1392H10.6445ZM23.8281 5.33191V7.7285L15.518 10.768C15.4699 10.5012 15.2304 10.2983 14.9414 10.2983H10.0586C9.7697 10.2983 9.53019 10.5012 9.48205 10.768L1.17188 7.72855V5.33191C1.17188 4.68267 1.71656 4.1545 2.38614 4.1545H22.6139C23.2834 4.1545 23.8281 4.68267 23.8281 5.33191ZM22.3452 18.5842C22.3452 18.898 22.0828 19.1523 21.7592 19.1523H16.9495C16.6259 19.1523 16.3636 18.898 16.3636 18.5842C16.3636 18.2705 16.6259 18.0159 16.9495 18.0159H21.7592C22.0828 18.0159 22.3452 18.2705 22.3452 18.5842ZM3.15562 6.17887C3.15562 5.86511 3.41797 5.6107 3.74156 5.6107H6.81773C7.14133 5.6107 7.40367 5.86511 7.40367 6.17887C7.40367 6.49266 7.14133 6.74706 6.81773 6.74706H3.74156C3.41797 6.74706 3.15562 6.49266 3.15562 6.17887Z" fill="#2CA5C3"/>
</svg>
