<svg width="30" height="30" viewBox="0 0 30 30" fill="none" xmlns="http://www.w3.org/2000/svg">
<path d="M15.0023 14.6895C15.6046 14.6895 16.1193 14.475 16.5464 14.046C16.9735 13.6171 17.187 13.1015 17.187 12.4992C17.187 11.8969 16.9725 11.3822 16.5436 10.9551C16.1147 10.528 15.5991 10.3145 14.9967 10.3145C14.3944 10.3145 13.8797 10.5289 13.4526 10.9579C13.0256 11.3868 12.812 11.9024 12.812 12.5047C12.812 13.107 13.0265 13.6217 13.4554 14.0488C13.8843 14.4759 14.4 14.6895 15.0023 14.6895ZM14.9995 27.502C11.6453 24.6478 9.14014 21.9967 7.48389 19.5488C5.82764 17.1009 4.99951 14.8353 4.99951 12.752C4.99951 9.62695 6.00472 7.13737 8.01514 5.2832C10.0256 3.42904 12.3537 2.50195 14.9995 2.50195C17.6453 2.50195 19.9735 3.42904 21.9839 5.2832C23.9943 7.13737 24.9995 9.62695 24.9995 12.752C24.9995 14.8353 24.1714 17.1009 22.5151 19.5488C20.8589 21.9967 18.3537 24.6478 14.9995 27.502Z" fill="#2CA5C3"/>
</svg>
