<svg width="28" height="38" viewBox="0 0 28 38" fill="none" xmlns="http://www.w3.org/2000/svg">
<path d="M0 3.5C0 1.567 1.567 0 3.5 0H17.5C19.4329 0 21 1.567 21 3.5V14H24.5C26.4329 14 28 15.567 28 17.5V36.1667C28 36.8109 27.4776 37.3333 26.8333 37.3333H21V29.1667C21 28.5224 20.4776 28 19.8333 28H8.16667C7.52234 28 7 28.5224 7 29.1667V37.3333H1.16667C0.52234 37.3333 0 36.8109 0 36.1667V3.5ZM6.41667 10.5C7.38316 10.5 8.16667 9.71649 8.16667 8.75C8.16667 7.78351 7.38316 7 6.41667 7C5.45018 7 4.66667 7.78351 4.66667 8.75C4.66667 9.71649 5.45018 10.5 6.41667 10.5ZM8.16667 15.75C8.16667 14.7835 7.38316 14 6.41667 14C5.45018 14 4.66667 14.7835 4.66667 15.75C4.66667 16.7165 5.45018 17.5 6.41667 17.5C7.38316 17.5 8.16667 16.7165 8.16667 15.75ZM6.41667 24.5C7.38316 24.5 8.16667 23.7165 8.16667 22.75C8.16667 21.7835 7.38316 21 6.41667 21C5.45018 21 4.66667 21.7835 4.66667 22.75C4.66667 23.7165 5.45018 24.5 6.41667 24.5ZM15.1667 8.75C15.1667 7.78351 14.3831 7 13.4167 7C12.4502 7 11.6667 7.78351 11.6667 8.75C11.6667 9.71649 12.4502 10.5 13.4167 10.5C14.3831 10.5 15.1667 9.71649 15.1667 8.75ZM13.4167 17.5C14.3831 17.5 15.1667 16.7165 15.1667 15.75C15.1667 14.7835 14.3831 14 13.4167 14C12.4502 14 11.6667 14.7835 11.6667 15.75C11.6667 16.7165 12.4502 17.5 13.4167 17.5ZM15.1667 22.75C15.1667 21.7835 14.3831 21 13.4167 21C12.4502 21 11.6667 21.7835 11.6667 22.75C11.6667 23.7165 12.4502 24.5 13.4167 24.5C14.3831 24.5 15.1667 23.7165 15.1667 22.75ZM20.4167 24.5C21.3831 24.5 22.1667 23.7165 22.1667 22.75C22.1667 21.7835 21.3831 21 20.4167 21C19.4502 21 18.6667 21.7835 18.6667 22.75C18.6667 23.7165 19.4502 24.5 20.4167 24.5Z" fill="white"/>
<path d="M18.6668 30.334V37.334H15.1668V30.334H18.6668Z" fill="white"/>
<path d="M12.8334 30.334H9.3334V37.334H12.8334V30.334Z" fill="white"/>
</svg>
