<svg width="32" height="30" viewBox="0 0 32 30" fill="none" xmlns="http://www.w3.org/2000/svg">
<path d="M17.3218 16.3327C19.5309 16.3327 21.3217 18.1235 21.3217 20.3326L21.3196 22.3282C21.5939 27.2256 17.8219 29.668 10.827 29.668C3.85465 29.668 0 27.2576 0 22.3981V20.3326C0 18.1235 1.79083 16.3327 3.99993 16.3327H17.3218ZM27.9898 16.3327C30.1989 16.3327 31.9898 18.1235 31.9898 20.3326L31.9878 21.7368C32.2289 26.13 28.8959 28.3325 22.8038 28.3325C21.9768 28.3325 21.1994 28.2922 20.4734 28.2116C21.9046 26.8899 22.6702 25.0964 22.6676 22.8301L22.6508 22.2537L22.655 20.3326C22.655 18.7391 21.9562 17.3089 20.8482 16.3316L27.9898 16.3327ZM10.6665 0.333008C14.3489 0.333008 17.3341 3.3182 17.3341 7.00063C17.3341 10.6831 14.3489 13.6683 10.6665 13.6683C6.98404 13.6683 3.99885 10.6831 3.99885 7.00063C3.99885 3.3182 6.98404 0.333008 10.6665 0.333008ZM23.9996 2.99962C26.945 2.99962 29.3328 5.38739 29.3328 8.33286C29.3328 11.2783 26.945 13.6661 23.9996 13.6661C21.0541 13.6661 18.6663 11.2783 18.6663 8.33286C18.6663 5.38739 21.0541 2.99962 23.9996 2.99962Z" fill="#2CA5C3"/>
</svg>
