<svg width="82" height="82" viewBox="0 0 82 82" fill="none" xmlns="http://www.w3.org/2000/svg">
<g clip-path="url(#clip0_6_6948)">
<g clip-path="url(#clip1_6_6948)">
<g clip-path="url(#clip2_6_6948)">
<path d="M39.3074 25.1273C36.8997 25.1246 34.5254 25.6839 32.3778 26.7595C30.2303 27.8351 28.3701 29.3968 26.9487 31.3173C25.5273 33.2377 24.585 35.4627 24.1984 37.8112C23.8118 40.1597 23.9919 42.5651 24.7239 44.8318C25.456 47.0985 26.7194 49.1623 28.4112 50.8552C30.103 52.5481 32.1755 53.8223 34.4598 54.5739C36.7442 55.3256 39.1759 55.5335 41.557 55.1807C43.938 54.828 46.2011 53.9245 48.162 52.5439L53.6506 57.9724C54.1289 58.4444 54.7773 58.7093 55.4532 58.7088C56.1292 58.7083 56.7772 58.4425 57.2548 57.9699C57.7324 57.4972 58.0005 56.8564 58 56.1885C57.9995 55.5205 57.7306 54.8801 57.2523 54.4081L51.7592 48.9869C53.388 46.7283 54.3558 44.0699 54.5564 41.3035C54.7569 38.537 54.1825 35.7695 52.8961 33.3045C51.6096 30.8395 49.6609 28.7723 47.2639 27.3299C44.8668 25.8874 42.1139 25.1253 39.3074 25.1273ZM56.4498 55.1988C56.713 55.4627 56.8605 55.8183 56.8605 56.1888C56.8605 56.5593 56.713 56.915 56.4498 57.1788C56.1791 57.4315 55.8209 57.5722 55.4486 57.5722C55.0763 57.5722 54.7181 57.4315 54.4474 57.1788L49.0675 51.8572C49.7931 51.2611 50.4617 50.6004 51.0649 49.8834L56.4498 55.1988ZM39.3074 54.2284C36.5073 54.2284 33.7701 53.4079 31.4419 51.8705C29.1137 50.3332 27.2991 48.1481 26.2276 45.5916C25.156 43.0351 24.8756 40.222 25.4219 37.508C25.9682 34.7941 27.3165 32.3011 29.2965 30.3445C31.2765 28.3878 33.7991 27.0553 36.5454 26.5154C39.2917 25.9756 42.1383 26.2527 44.7252 27.3116C47.3121 28.3705 49.5232 30.1638 51.0789 32.4646C52.6345 34.7654 53.4649 37.4703 53.4649 40.2375C53.4607 43.9468 51.9677 47.5031 49.3136 50.126C46.6595 52.7489 43.0609 54.2243 39.3074 54.2284Z" fill="#2CA5C3"/>
<path d="M42.4086 27.7324C42.2625 27.6971 42.1082 27.7205 41.9797 27.7976C41.8511 27.8747 41.7588 27.9991 41.7231 28.1435C41.6873 28.2878 41.7111 28.4403 41.7891 28.5673C41.8671 28.6944 41.993 28.7856 42.139 28.8209C44.2819 29.3396 46.2365 30.4374 47.784 31.9913C49.3316 33.5452 50.4111 35.494 50.9019 37.6196C51.3926 39.7453 51.2751 41.964 50.5627 44.0274C49.8502 46.0909 48.5708 47.9178 46.8676 49.3036C46.4881 48.0281 45.8103 46.8587 44.889 45.8898C45.6413 45.7103 46.3318 45.3364 46.8897 44.8064C47.1335 44.5232 47.2569 44.1578 47.2341 43.7867C47.2113 43.4156 47.0441 43.0677 46.7674 42.8157C46.3081 42.4094 45.5368 41.3209 45.5368 38.5586V36.32C45.5368 34.6874 44.8805 33.1216 43.7123 31.9671C42.5441 30.8126 40.9596 30.164 39.3075 30.164C37.6554 30.164 36.071 30.8126 34.9027 31.9671C33.7345 33.1216 33.0782 34.6874 33.0782 36.32V38.5586C33.0782 41.3209 32.3069 42.4094 31.8516 42.809C31.5732 43.0612 31.4046 43.4102 31.3812 43.7827C31.3579 44.1553 31.4817 44.5222 31.7265 44.8064C32.2846 45.3347 32.9743 45.7075 33.7255 45.887C32.8042 46.8559 32.1264 48.0253 31.7469 49.3008C29.8565 47.7621 28.4932 45.6839 27.8433 43.3504C27.1935 41.0169 27.2887 38.542 28.1161 36.2641C28.9435 33.9862 30.4627 32.0163 32.4658 30.624C34.469 29.2316 36.8585 28.4846 39.3075 28.4851C39.4577 28.4851 39.6018 28.4262 39.708 28.3212C39.8142 28.2163 39.8738 28.0739 39.8738 27.9255C39.8738 27.7771 39.8142 27.6347 39.708 27.5298C39.6018 27.4248 39.4577 27.3658 39.3075 27.3658C35.993 27.3701 32.8052 28.6245 30.395 30.873C27.9848 33.1215 26.534 36.1944 26.339 39.4643C26.1439 42.7341 27.2193 45.9542 29.3455 48.4669C31.4717 50.9797 34.4884 52.5956 37.7794 52.9846C41.0705 53.3736 44.3877 52.5064 47.0536 50.5601C49.7195 48.6138 51.533 45.7352 52.1239 42.5122C52.7147 39.2891 52.0383 35.9648 50.2327 33.218C48.4271 30.4711 45.6286 28.5091 42.4086 27.7324ZM46.0204 43.6513C46.0722 43.7088 46.1017 43.7825 46.1036 43.8595C46.1056 43.9364 46.0799 44.0115 46.0312 44.0716C45.3906 44.5733 44.6259 44.8967 43.8164 45.0084C43.1432 44.5666 42.3749 44.286 41.5727 44.1891V43.883C42.7394 42.8731 43.6519 41.6085 44.2377 40.1894C44.3242 40.1682 44.4089 40.1404 44.4909 40.106C44.7293 42.1011 45.4202 43.1275 46.0204 43.6513ZM34.2108 36.32C34.2108 34.9842 34.7478 33.7031 35.7036 32.7585C36.6594 31.814 37.9558 31.2833 39.3075 31.2833C40.6593 31.2833 41.9556 31.814 42.9114 32.7585C43.8672 33.7031 44.4042 34.9842 44.4042 36.32V36.9793C44.3884 36.9737 44.3736 36.9653 44.3572 36.9603C44.0945 36.015 43.4919 35.197 42.6623 34.6596C42.3804 34.4584 42.0487 34.3362 41.7023 34.3059C41.3559 34.2757 41.0076 34.3385 40.6944 34.4878C39.3955 34.9896 38.0145 35.2516 36.6199 35.2606L36.2801 35.2802C35.8066 35.3074 35.3546 35.4853 34.9919 35.7873C34.6291 36.0893 34.375 36.4992 34.2675 36.9558C34.2476 36.9619 34.2312 36.9737 34.2108 36.9804V36.32ZM34.3847 38.1596C34.4358 38.1081 34.4969 38.0674 34.5644 38.0398C34.6318 38.0122 34.7041 37.9983 34.7771 37.9989C34.9273 37.9989 35.0714 37.94 35.1776 37.835C35.2838 37.7301 35.3434 37.5877 35.3434 37.4393C35.3449 37.1716 35.4499 36.9146 35.6369 36.7209C35.8238 36.5272 36.0787 36.4114 36.3492 36.3973L36.6782 36.3782C38.2199 36.3657 39.7456 36.0679 41.1763 35.5002C41.2903 35.4472 41.4145 35.4195 41.5404 35.419C41.7021 35.4178 41.8599 35.4678 41.9907 35.5617C42.4692 35.9098 43.2716 36.6161 43.2716 37.4393C43.2716 37.5877 43.3313 37.7301 43.4375 37.835C43.5437 37.94 43.6877 37.9989 43.8379 37.9989C43.9881 37.9989 44.1322 38.0579 44.2384 38.1629C44.3446 38.2678 44.4042 38.4102 44.4042 38.5586C44.4042 38.707 44.3446 38.8494 44.2384 38.9543C44.1322 39.0593 43.9881 39.1182 43.8379 39.1182C43.7226 39.1181 43.6101 39.1528 43.5152 39.2176C43.4204 39.2824 43.3479 39.3742 43.3073 39.4809C42.8752 40.6253 41.3083 43.5953 39.3075 43.5953C37.3068 43.5953 35.7432 40.6253 35.3078 39.4809C35.2672 39.3742 35.1946 39.2824 35.0998 39.2176C35.005 39.1528 34.8924 39.1181 34.7771 39.1182C34.6269 39.1182 34.4829 39.0593 34.3767 38.9543C34.2705 38.8494 34.2108 38.707 34.2108 38.5586C34.2107 38.4839 34.226 38.4099 34.2559 38.3413C34.2858 38.2726 34.3297 38.2108 34.3847 38.1596ZM40.4401 44.5058V44.7146C40.4401 45.0114 40.3208 45.2961 40.1084 45.506C39.896 45.7159 39.6079 45.8339 39.3075 45.8339C39.0071 45.8339 38.7191 45.7159 38.5067 45.506C38.2943 45.2961 38.1749 45.0114 38.1749 44.7146V44.5058C38.9037 44.7842 39.7113 44.7842 40.4401 44.5058ZM32.5856 44.0766C32.5357 44.0157 32.5097 43.9392 32.5122 43.8609C32.5147 43.7826 32.5456 43.7078 32.5991 43.6502C33.196 43.1263 33.8858 42.1005 34.1242 40.1071C34.2062 40.1415 34.2908 40.1694 34.3773 40.1905C34.9633 41.6092 35.8758 42.8734 37.0423 43.883V44.1891C36.2398 44.2866 35.4715 44.5681 34.7986 45.0112C33.9901 44.8994 33.2262 44.5768 32.5856 44.0766ZM39.3075 51.9899C36.9612 51.9919 34.6674 51.3038 32.7181 50.0132C33.4208 47.4132 35.1616 45.5669 37.1352 45.3084C37.2642 45.7807 37.5472 46.1978 37.9402 46.4952C38.3332 46.7927 38.8145 46.9539 39.3095 46.9539C39.8045 46.9539 40.2858 46.7927 40.6788 46.4952C41.0719 46.1978 41.3548 45.7807 41.4838 45.3084C43.4557 45.5675 45.1965 47.4137 45.901 50.0138C43.9505 51.3049 41.6551 51.9928 39.3075 51.9899Z" fill="#2CA5C3"/>
</g>
</g>
</g>
<rect x="41" y="-0.722947" width="59" height="59" rx="4.5" transform="rotate(45 41 -0.722947)" stroke="#2CA5C3"/>
<defs>
<clipPath id="clip0_6_6948">
<rect width="34" height="34" fill="white" transform="translate(24 25)"/>
</clipPath>
<clipPath id="clip1_6_6948">
<rect width="34" height="34" fill="white" transform="translate(24 25)"/>
</clipPath>
<clipPath id="clip2_6_6948">
<rect width="34" height="34" fill="white" transform="translate(24 25)"/>
</clipPath>
</defs>
</svg>
