<svg width="28" height="30" viewBox="0 0 28 30" fill="none" xmlns="http://www.w3.org/2000/svg">
<mask id="mask0_18_4378" style="mask-type:luminance" maskUnits="userSpaceOnUse" x="0" y="0" width="28" height="30">
<path d="M28 0H0V30H28V0Z" fill="white"/>
</mask>
<g mask="url(#mask0_18_4378)">
<path d="M25.9337 4.14795H2.0663C1.58374 4.14795 1.51112 4.39123 1.90487 4.69076L13.3626 13.4034C13.7143 13.7897 14.2857 13.7897 14.6374 13.4034L26.0951 4.69076C26.4889 4.39123 26.4162 4.14795 25.9337 4.14795Z" fill="#2CA5C3"/>
<path d="M27.125 6.56247V22.6172C27.125 23.5875 26.39 24.375 25.4844 24.375H2.51562C1.61 24.375 0.875 23.5875 0.875 22.6172V6.56247C0.875 6.04497 1.1935 5.87013 1.58594 6.17153L13.3626 15.2278C13.7143 15.6145 14.2857 15.6145 14.6374 15.2278L26.4141 6.17153C26.8065 5.87013 27.125 6.04497 27.125 6.56247Z" fill="#2CA5C3"/>
</g>
</svg>
