<svg width="36" height="36" viewBox="0 0 36 36" fill="none" xmlns="http://www.w3.org/2000/svg">
<rect x="2" y="2" width="32" height="32" rx="16" fill="#F7F9FB"/>
<path d="M20 8.26946V12.4C20 12.9601 20 13.2401 20.109 13.454C20.2049 13.6422 20.3578 13.7951 20.546 13.891C20.7599 14 21.0399 14 21.6 14H25.7305M26 15.9882V23.2C26 24.8802 26 25.7202 25.673 26.362C25.3854 26.9265 24.9265 27.3854 24.362 27.673C23.7202 28 22.8802 28 21.2 28H14.8C13.1198 28 12.2798 28 11.638 27.673C11.0735 27.3854 10.6146 26.9265 10.327 26.362C10 25.7202 10 24.8802 10 23.2V12.8C10 11.1198 10 10.2798 10.327 9.63803C10.6146 9.07354 11.0735 8.6146 11.638 8.32698C12.2798 8 13.1198 8 14.8 8H18.0118C18.7455 8 19.1124 8 19.4577 8.08289C19.7638 8.15638 20.0564 8.27759 20.3249 8.44208C20.6276 8.6276 20.887 8.88703 21.4059 9.40589L24.5941 12.5941C25.113 13.113 25.3724 13.3724 25.5579 13.6751C25.7224 13.9436 25.8436 14.2362 25.9171 14.5423C26 14.8876 26 15.2545 26 15.9882Z" stroke="#2CA5C3" stroke-width="1.33333" stroke-linecap="round" stroke-linejoin="round"/>
<rect x="2" y="2" width="32" height="32" rx="16" stroke="#F7F9FB" stroke-width="4"/>
</svg>
