<svg width="42" height="42" viewBox="0 0 42 42" fill="none" xmlns="http://www.w3.org/2000/svg">
<g clip-path="url(#clip0_59_6814)">
<path d="M21 41.9796C32.4883 41.9796 42 32.4518 42 20.9898C42 9.50713 32.4676 0 20.9794 0C9.51176 0 0 9.50713 0 20.9898C0 32.4518 9.53233 41.9796 21 41.9796ZM21 38.4812C11.2823 38.4812 3.52058 30.7026 3.52058 20.9898C3.52058 11.2768 11.2618 3.4983 20.9794 3.4983C30.6969 3.4983 38.4999 11.2768 38.4999 20.9898C38.4999 30.7026 30.7176 38.4812 21 38.4812ZM19.3735 12.3469C20.2176 11.5032 20.2382 10.2274 19.3941 9.40423C18.6117 8.58111 17.2941 8.51937 16.45 9.30134C16.347 9.46597 13.2794 12.3675 11.5706 14.2607C10.0059 15.9481 9.24412 18.1294 9.38821 20.3518C9.53233 22.6771 10.6235 24.8172 12.4559 26.3812C13.9176 27.6571 15.8529 28.2949 17.7882 28.2949C19.8059 28.2949 21.7823 27.6364 23.2852 26.2372C24.3764 25.2907 25.6117 23.953 25.653 23.9324C26.4353 23.0682 26.3736 21.7512 25.5499 20.9898C24.706 20.1666 23.3677 20.2284 22.6059 21.0927C22.5646 21.0927 21.4734 22.3273 20.5059 23.1711C18.9412 24.5498 16.45 24.3235 15.1529 23.2534C14.2059 22.3891 13.6706 21.2984 13.5882 20.1255C13.4853 18.9937 13.897 17.9236 14.6588 17.1005C16.2441 15.2896 19.3323 12.3675 19.3735 12.3469ZM22.6059 30.0648C21.7618 30.9085 21.7411 32.2049 22.5646 33.0075C23.3677 33.8512 24.6646 33.913 25.5088 33.131C25.653 32.9662 28.7 30.0441 30.4087 28.151C31.9528 26.4842 32.7147 24.3235 32.5912 22.0599C32.447 19.7551 31.3557 17.5944 29.5646 16.051C28.0412 14.7546 26.1265 14.1372 24.1705 14.1372C22.1529 14.1372 20.2176 14.7957 18.6735 16.1745C17.5823 17.1211 16.347 18.4586 16.3265 18.4998C15.5235 19.3847 15.5853 20.7017 16.4294 21.4425C17.2735 22.2449 18.6117 22.2038 19.3735 21.3601C19.3941 21.319 20.5059 20.0637 21.4734 19.2612C23.0177 17.8619 25.5088 18.1294 26.8058 19.1789C27.753 20.0432 28.3087 21.1132 28.3705 22.3273C28.494 23.4385 28.0616 24.5087 27.2999 25.3729C25.7352 27.1427 22.6264 30.0441 22.6059 30.0648Z" fill="black" fill-opacity="0.85"/>
</g>
<defs>
<clipPath id="clip0_59_6814">
<rect width="42" height="42" fill="white"/>
</clipPath>
</defs>
</svg>
