<svg width="30" height="30" viewBox="0 0 30 30" fill="none" xmlns="http://www.w3.org/2000/svg">
<g clip-path="url(#clip0_79_13531)">
<path d="M19.435 25.7464H25.3178C26.3475 25.7464 27 25.0225 27 23.8908V10.8815C27 9.74978 26.3475 9.0259 25.3178 9.0259H19.9346V23.8908C19.9346 24.5739 19.7715 25.1958 19.435 25.7464ZM22.2489 14.1848V12.5535C22.2489 12.3394 22.3815 12.1967 22.6058 12.1967H24.2982C24.5123 12.1967 24.6551 12.3394 24.6551 12.5535V14.1848C24.6551 14.3989 24.5123 14.5518 24.2982 14.5518H22.6058C22.3815 14.5518 22.2489 14.3989 22.2489 14.1848ZM22.2489 18.2018V16.5705C22.2489 16.3564 22.3815 16.2136 22.6058 16.2136H24.2982C24.5123 16.2136 24.6551 16.3564 24.6551 16.5705V18.2018C24.6551 18.4159 24.5123 18.5586 24.2982 18.5586H22.6058C22.3815 18.5586 22.2489 18.4159 22.2489 18.2018ZM22.2489 22.2188V20.5875C22.2489 20.3734 22.3815 20.2204 22.6058 20.2204H24.2982C24.5123 20.2204 24.6551 20.3734 24.6551 20.5875V22.2188C24.6551 22.4328 24.5123 22.5756 24.2982 22.5756H22.6058C22.3815 22.5756 22.2489 22.4328 22.2489 22.2188ZM3 23.8908C3 25.0225 3.65251 25.7464 4.69243 25.7464H16.8453C17.8853 25.7464 18.5378 25.0225 18.5378 23.8908V5.86533C18.5378 4.73364 17.8853 4.00977 16.8453 4.00977H4.69243C3.65251 4.00977 3 4.73364 3 5.86533V23.8908ZM7.24129 24.1049V20.7914C7.24129 20.3224 7.54715 20.0166 8.01614 20.0166H13.6134C14.0824 20.0166 14.3883 20.3224 14.3883 20.7914V24.1049H7.24129ZM6.90483 9.4847V7.50679C6.90483 7.2519 7.06796 7.06838 7.32285 7.06838H9.36193C9.61682 7.06838 9.80033 7.2519 9.80033 7.50679V9.4847C9.80033 9.74978 9.61682 9.9231 9.36193 9.9231H7.32285C7.06796 9.9231 6.90483 9.74978 6.90483 9.4847ZM11.8292 9.4847V7.50679C11.8292 7.2519 11.9923 7.06838 12.2574 7.06838H14.2863C14.5412 7.06838 14.7247 7.2519 14.7247 7.50679V9.4847C14.7247 9.74978 14.5412 9.9231 14.2863 9.9231H12.2574C11.9923 9.9231 11.8292 9.74978 11.8292 9.4847ZM6.90483 13.6444V11.6665C6.90483 11.4116 7.06796 11.2281 7.32285 11.2281H9.36193C9.61682 11.2281 9.80033 11.4116 9.80033 11.6665V13.6444C9.80033 13.9095 9.61682 14.0828 9.36193 14.0828H7.32285C7.06796 14.0828 6.90483 13.9095 6.90483 13.6444ZM11.8292 13.6444V11.6665C11.8292 11.4116 11.9923 11.2281 12.2574 11.2281H14.2863C14.5412 11.2281 14.7247 11.4116 14.7247 11.6665V13.6444C14.7247 13.9095 14.5412 14.0828 14.2863 14.0828H12.2574C11.9923 14.0828 11.8292 13.9095 11.8292 13.6444ZM6.90483 17.8042V15.8262C6.90483 15.5611 7.06796 15.3878 7.32285 15.3878H9.36193C9.61682 15.3878 9.80033 15.5611 9.80033 15.8262V17.8042C9.80033 18.059 9.61682 18.2426 9.36193 18.2426H7.32285C7.06796 18.2426 6.90483 18.059 6.90483 17.8042ZM11.8292 17.8042V15.8262C11.8292 15.5611 11.9923 15.3878 12.2574 15.3878H14.2863C14.5412 15.3878 14.7247 15.5611 14.7247 15.8262V17.8042C14.7247 18.059 14.5412 18.2426 14.2863 18.2426H12.2574C11.9923 18.2426 11.8292 18.059 11.8292 17.8042Z" fill="#4A4A4A"/>
</g>
<defs>
<clipPath id="clip0_79_13531">
<rect width="24" height="21.7468" fill="white" transform="translate(3 4)"/>
</clipPath>
</defs>
</svg>
