<svg width="82" height="82" viewBox="0 0 82 82" fill="none" xmlns="http://www.w3.org/2000/svg">
<g clip-path="url(#clip0_6_6916)">
<g clip-path="url(#clip1_6_6916)">
<g clip-path="url(#clip2_6_6916)">
<path d="M43.9107 36.7604L56.4132 39.2333C57.4208 39.4452 58.102 40.2931 58.102 41.2964V55.7095C58.102 56.8824 57.1512 57.8291 55.9733 57.8291H43.2012C43.5985 57.8291 43.9107 57.5183 43.9107 57.1226V56.4161H55.9733C56.3565 56.4161 56.6828 56.1052 56.6828 55.7095V41.2964C56.6828 40.9713 56.4558 40.6746 56.1294 40.604L43.9107 38.2018V36.7604Z" fill="#2CA5C3"/>
<path d="M51.7158 43.6985C52.1131 43.6985 52.4253 44.0094 52.4253 44.4051C52.4253 44.8007 52.1131 45.1116 51.7158 45.1116H48.8775C48.4802 45.1116 48.168 44.8007 48.168 44.4051C48.168 44.0094 48.4802 43.6985 48.8775 43.6985H51.7158Z" fill="#2CA5C3"/>
<path d="M51.7158 47.9377C52.1131 47.9377 52.4253 48.2486 52.4253 48.6442C52.4253 49.0399 52.1131 49.3508 51.7158 49.3508H48.8775C48.4802 49.3508 48.168 49.0399 48.168 48.6442C48.168 48.2486 48.4802 47.9377 48.8775 47.9377H51.7158Z" fill="#2CA5C3"/>
<path d="M51.7158 52.1769C52.1131 52.1769 52.4253 52.4878 52.4253 52.8834C52.4253 53.2791 52.1131 53.59 51.7158 53.59H48.8775C48.4802 53.59 48.168 53.2791 48.168 52.8834C48.168 52.4878 48.4802 52.1769 48.8775 52.1769H51.7158Z" fill="#2CA5C3"/>
<path d="M43.9103 57.1225C43.9103 57.5182 43.5981 57.829 43.2008 57.829C42.8034 57.829 42.4912 57.5182 42.4912 57.1225V56.416V37.3397C42.4912 37.1277 42.5906 36.9299 42.7467 36.7886C42.9169 36.6614 43.1298 36.6049 43.3427 36.6473L43.9103 36.7603V38.2017V56.416V57.1225Z" fill="#2CA5C3"/>
<path d="M42.4923 56.4161V57.1226C42.4923 57.5183 42.8045 57.8292 43.2019 57.8292H37.5254C37.9227 57.8292 38.235 57.5183 38.235 57.1226V56.4161H42.4923Z" fill="#2CA5C3"/>
<path d="M38.9433 30.9811C39.3407 30.9811 39.6529 31.2919 39.6529 31.6876C39.6529 32.0833 39.3407 32.3941 38.9433 32.3941H36.1051C35.7077 32.3941 35.3955 32.0833 35.3955 31.6876C35.3955 31.2919 35.7077 30.9811 36.1051 30.9811H38.9433Z" fill="#2CA5C3"/>
<path d="M39.6529 35.9267C39.6529 36.3224 39.3407 36.6333 38.9433 36.6333H36.1051C35.7077 36.6333 35.3955 36.3224 35.3955 35.9267C35.3955 35.5311 35.7077 35.2202 36.1051 35.2202H38.9433C39.3407 35.2202 39.6529 35.5311 39.6529 35.9267Z" fill="#2CA5C3"/>
<path d="M38.9433 39.4594C39.3407 39.4594 39.6529 39.7701 39.6529 40.1658C39.6529 40.5615 39.3407 40.8724 38.9433 40.8724H36.1051C35.7077 40.8724 35.3955 40.5615 35.3955 40.1658C35.3955 39.7701 35.7077 39.4594 36.1051 39.4594H38.9433Z" fill="#2CA5C3"/>
<path d="M38.9433 43.6985C39.3407 43.6985 39.6529 44.0094 39.6529 44.4051C39.6529 44.8007 39.3407 45.1116 38.9433 45.1116H36.1051C35.7077 45.1116 35.3955 44.8007 35.3955 44.4051C35.3955 44.0094 35.7077 43.6985 36.1051 43.6985H38.9433Z" fill="#2CA5C3"/>
<path d="M32.5582 44.4051C32.5582 44.8007 32.246 45.1116 31.8486 45.1116H29.0103C28.613 45.1116 28.3008 44.8007 28.3008 44.4051C28.3008 44.0094 28.613 43.6985 29.0103 43.6985H31.8486C32.246 43.6985 32.5582 44.0094 32.5582 44.4051Z" fill="#2CA5C3"/>
<path d="M31.8486 30.9811C32.246 30.9811 32.5582 31.2919 32.5582 31.6876C32.5582 32.0833 32.246 32.3941 31.8486 32.3941H29.0103C28.613 32.3941 28.3008 32.0833 28.3008 31.6876C28.3008 31.2919 28.613 30.9811 29.0103 30.9811H31.8486Z" fill="#2CA5C3"/>
<path d="M31.8486 35.2202C32.246 35.2202 32.5582 35.5311 32.5582 35.9267C32.5582 36.3224 32.246 36.6333 31.8486 36.6333H29.0103C28.613 36.6333 28.3008 36.3224 28.3008 35.9267C28.3008 35.5311 28.613 35.2202 29.0103 35.2202H31.8486Z" fill="#2CA5C3"/>
<path d="M31.8486 39.4594C32.246 39.4594 32.5582 39.7701 32.5582 40.1658C32.5582 40.5615 32.246 40.8724 31.8486 40.8724H29.0103C28.613 40.8724 28.3008 40.5615 28.3008 40.1658C28.3008 39.7701 28.613 39.4594 29.0103 39.4594H31.8486Z" fill="#2CA5C3"/>
<path d="M36.8153 50.0573C36.8153 49.6617 36.4889 49.3508 36.1058 49.3508H31.8484C31.4511 49.3508 31.1388 49.6617 31.1388 50.0573V56.4161H29.7197V50.0573C29.7197 48.8845 30.6705 47.9377 31.8484 47.9377H36.1058C37.2837 47.9377 38.2345 48.8845 38.2345 50.0573V56.4161H36.8153V50.0573Z" fill="#2CA5C3"/>
<path d="M31.1388 56.4161H36.8153H38.2345V57.1226C38.2345 57.5183 37.9223 57.8292 37.5249 57.8292H30.4293C30.0319 57.8292 29.7197 57.5183 29.7197 57.1226V56.4161H31.1388Z" fill="#2CA5C3"/>
<path d="M26.5264 24.1984L42.1226 26.5582C43.1586 26.7278 43.9107 27.6039 43.9107 28.6495V36.7604L43.3431 36.6474C43.1302 36.605 42.9173 36.6615 42.747 36.7887C42.5909 36.93 42.4916 37.1278 42.4916 37.3398V28.6495C42.4916 28.2963 42.2361 27.9995 41.8955 27.943L26.2994 25.5973C26.2568 25.5832 26.2142 25.5832 26.1716 25.5832C26.0014 25.5832 25.8453 25.6397 25.7175 25.7528C25.5472 25.8941 25.4621 26.0778 25.4621 26.2897V55.7096C25.4621 56.1052 25.7885 56.4161 26.1716 56.4161H29.7195V57.1226C29.7195 57.5183 30.0317 57.8291 30.429 57.8291H26.1716C24.9938 57.8291 24.043 56.8824 24.043 55.7096V26.2897C24.043 25.668 24.3126 25.0745 24.7951 24.6788C25.2776 24.2691 25.902 24.0995 26.5264 24.1984Z" fill="#2CA5C3"/>
</g>
</g>
</g>
<rect x="41" y="-0.722947" width="59" height="59" rx="4.5" transform="rotate(45 41 -0.722947)" stroke="#2CA5C3"/>
<defs>
<clipPath id="clip0_6_6916">
<rect width="35" height="34" fill="white" transform="translate(24 24)"/>
</clipPath>
<clipPath id="clip1_6_6916">
<rect width="35" height="34" fill="white" transform="translate(24 24)"/>
</clipPath>
<clipPath id="clip2_6_6916">
<rect width="35" height="34" fill="white" transform="translate(24 24)"/>
</clipPath>
</defs>
</svg>
