<svg width="20" height="19" viewBox="0 0 20 19" fill="none" xmlns="http://www.w3.org/2000/svg">
<g clip-path="url(#clip0_40_3918)">
<path d="M13.6958 18.2601H18.5982C19.4562 18.2601 20 17.6522 20 16.702V5.778C20 4.82772 19.4562 4.21988 18.5982 4.21988H14.1121V16.702C14.1121 17.2755 13.9762 17.7978 13.6958 18.2601ZM16.0408 8.5518V7.18202C16.0408 7.00224 16.1513 6.88238 16.3381 6.88238H17.7485C17.9269 6.88238 18.0459 7.00224 18.0459 7.18202V8.5518C18.0459 8.73159 17.9269 8.85998 17.7485 8.85998H16.3381C16.1513 8.85998 16.0408 8.73159 16.0408 8.5518ZM16.0408 11.9249V10.5551C16.0408 10.3753 16.1513 10.2554 16.3381 10.2554H17.7485C17.9269 10.2554 18.0459 10.3753 18.0459 10.5551V11.9249C18.0459 12.1047 17.9269 12.2245 17.7485 12.2245H16.3381C16.1513 12.2245 16.0408 12.1047 16.0408 11.9249ZM16.0408 15.298V13.9282C16.0408 13.7484 16.1513 13.62 16.3381 13.62H17.7485C17.9269 13.62 18.0459 13.7484 18.0459 13.9282V15.298C18.0459 15.4777 17.9269 15.5976 17.7485 15.5976H16.3381C16.1513 15.5976 16.0408 15.4777 16.0408 15.298ZM0 16.702C0 17.6522 0.543755 18.2601 1.41036 18.2601H11.5378C12.4044 18.2601 12.9482 17.6522 12.9482 16.702V1.56594C12.9482 0.615651 12.4044 0.0078125 11.5378 0.0078125H1.41036C0.543755 0.0078125 0 0.615651 0 1.56594V16.702ZM3.53441 16.8818V14.0994C3.53441 13.7056 3.78929 13.4488 4.18012 13.4488H8.8445C9.23531 13.4488 9.49022 13.7056 9.49022 14.0994V16.8818H3.53441ZM3.25403 4.60513V2.94428C3.25403 2.73024 3.38997 2.57614 3.60237 2.57614H5.30161C5.51401 2.57614 5.66694 2.73024 5.66694 2.94428V4.60513C5.66694 4.82772 5.51401 4.97326 5.30161 4.97326H3.60237C3.38997 4.97326 3.25403 4.82772 3.25403 4.60513ZM7.35768 4.60513V2.94428C7.35768 2.73024 7.49362 2.57614 7.71452 2.57614H9.40522C9.61767 2.57614 9.77062 2.73024 9.77062 2.94428V4.60513C9.77062 4.82772 9.61767 4.97326 9.40522 4.97326H7.71452C7.49362 4.97326 7.35768 4.82772 7.35768 4.60513ZM3.25403 8.09806V6.43721C3.25403 6.22318 3.38997 6.06908 3.60237 6.06908H5.30161C5.51401 6.06908 5.66694 6.22318 5.66694 6.43721V8.09806C5.66694 8.32065 5.51401 8.46619 5.30161 8.46619H3.60237C3.38997 8.46619 3.25403 8.32065 3.25403 8.09806ZM7.35768 8.09806V6.43721C7.35768 6.22318 7.49362 6.06908 7.71452 6.06908H9.40522C9.61767 6.06908 9.77062 6.22318 9.77062 6.43721V8.09806C9.77062 8.32065 9.61767 8.46619 9.40522 8.46619H7.71452C7.49362 8.46619 7.35768 8.32065 7.35768 8.09806ZM3.25403 11.591V9.93012C3.25403 9.70753 3.38997 9.56201 3.60237 9.56201H5.30161C5.51401 9.56201 5.66694 9.70753 5.66694 9.93012V11.591C5.66694 11.805 5.51401 11.9591 5.30161 11.9591H3.60237C3.38997 11.9591 3.25403 11.805 3.25403 11.591ZM7.35768 11.591V9.93012C7.35768 9.70753 7.49362 9.56201 7.71452 9.56201H9.40522C9.61767 9.56201 9.77062 9.70753 9.77062 9.93012V11.591C9.77062 11.805 9.61767 11.9591 9.40522 11.9591H7.71452C7.49362 11.9591 7.35768 11.805 7.35768 11.591Z" fill="#4A4A4A"/>
</g>
<defs>
<clipPath id="clip0_40_3918">
<rect width="20" height="18.2609" fill="white"/>
</clipPath>
</defs>
</svg>
