<svg width="10" height="10" viewBox="0 0 10 10" fill="none" xmlns="http://www.w3.org/2000/svg">
<g clip-path="url(#clip0_4_10904)">
<path d="M0.163226 9.83686C0.384004 10.0512 0.749863 10.0512 0.964331 9.83686L5.00141 5.80347L9.03846 9.83686C9.25298 10.0512 9.6251 10.0574 9.83961 9.83686C10.0541 9.61628 10.0541 9.25708 9.83961 9.04282L5.80252 5.0031L9.83961 0.969694C10.0541 0.75542 10.0604 0.389891 9.83961 0.175617C9.61883 -0.04496 9.25298 -0.04496 9.03846 0.175617L5.00141 4.20902L0.964331 0.175617C0.749863 -0.04496 0.377696 -0.0512622 0.163226 0.175617C-0.0512434 0.396193 -0.0512434 0.75542 0.163226 0.969694L4.2003 5.0031L0.163226 9.04282C-0.0512434 9.25708 -0.0575514 9.6226 0.163226 9.83686Z" fill="black" fill-opacity="0.85"/>
</g>
<defs>
<clipPath id="clip0_4_10904">
<rect width="10.0028" height="10" fill="white"/>
</clipPath>
</defs>
</svg>
