<svg width="10" height="10" viewBox="0 0 10 10" fill="none" xmlns="http://www.w3.org/2000/svg">
<path d="M0.163226 9.82904C0.384004 10.0434 0.749863 10.0434 0.964331 9.82904L5.00141 5.79566L9.03846 9.82904C9.25298 10.0434 9.6251 10.0496 9.83961 9.82904C10.0541 9.60847 10.0541 9.24927 9.83961 9.03501L5.80252 4.99528L9.83961 0.961881C10.0541 0.747607 10.0604 0.382079 9.83961 0.167804C9.61883 -0.0527725 9.25298 -0.0527725 9.03846 0.167804L5.00141 4.20121L0.964331 0.167804C0.749863 -0.0527725 0.377696 -0.0590747 0.163226 0.167804C-0.0512434 0.388381 -0.0512434 0.747607 0.163226 0.961881L4.2003 4.99528L0.163226 9.03501C-0.0512434 9.24927 -0.0575514 9.61479 0.163226 9.82904Z" fill="black" fill-opacity="0.85"/>
</svg>
