<svg width="30" height="30" viewBox="0 0 30 30" fill="none" xmlns="http://www.w3.org/2000/svg">
<path d="M0 2.1304C0 0.953812 0.951259 0 2.1247 0H11.8039C12.9773 0 13.9286 0.953812 13.9286 2.1304V8.04817C13.9286 9.22476 12.9773 10.1786 11.8039 10.1786H2.1247C0.951259 10.1786 0 9.22476 0 8.04817V2.1304Z" fill="#2CA5C3"/>
<path d="M16.0714 21.9519C16.0714 20.7753 17.0227 19.8215 18.1961 19.8215H27.8753C29.0487 19.8215 30 20.7753 30 21.9519V27.8697C30 29.0463 29.0487 30.0001 27.8753 30.0001H18.1961C17.0227 30.0001 16.0714 29.0463 16.0714 27.8697V21.9519Z" fill="#2CA5C3"/>
<path d="M16.0714 2.12143C16.0714 0.949796 17.0227 0 18.1961 0H27.8753C29.0487 0 30 0.949796 30 2.12143V15.5571C30 16.7288 29.0487 17.6786 27.8753 17.6786H18.1961C17.0227 17.6786 16.0714 16.7288 16.0714 15.5571V2.12143Z" fill="#1F778D"/>
<path d="M0 14.443C0 13.2713 0.951259 12.3215 2.1247 12.3215H11.8039C12.9773 12.3215 13.9286 13.2713 13.9286 14.443V27.8787C13.9286 29.0503 12.9773 30.0001 11.8039 30.0001H2.1247C0.951259 30.0001 0 29.0503 0 27.8787V14.443Z" fill="#1F778D"/>
</svg>
