<svg width="30" height="30" viewBox="0 0 30 30" fill="none" xmlns="http://www.w3.org/2000/svg">
<g clip-path="url(#clip0_4_2073)">
<path d="M15.0218 16.6411C15.4674 16.6411 15.8805 16.4345 16.3587 15.9563L25.8152 6.59757C25.413 6.20627 24.6631 6.02148 23.587 6.02148H6.08696C5.17391 6.02148 4.53261 6.1954 4.17392 6.55409L13.6848 15.9563C14.1521 16.4237 14.5652 16.6411 15.0218 16.6411ZM3.27174 22.9997L10.9565 15.4019L3.25 7.80409C3.08696 8.10844 3 8.63018 3 9.38018V21.3802C3 22.1519 3.08696 22.6954 3.27174 22.9997ZM6.41305 24.7497H23.9131C24.8261 24.7497 25.4565 24.5759 25.8152 24.2281L17.9782 16.4671L17.2609 17.1954C16.5109 17.9128 15.8043 18.2389 15.0218 18.2389C14.2283 18.2389 13.5217 17.9128 12.7826 17.1954L12.0544 16.4671L4.23913 24.2171C4.65218 24.5759 5.36957 24.7497 6.41305 24.7497ZM26.7391 22.9889C26.9131 22.6737 27 22.1411 27 21.3802V9.38018C27 8.65192 26.9131 8.13018 26.7609 7.8367L19.0761 15.4019L26.7391 22.9889Z" fill="#4A4A4A"/>
</g>
<defs>
<clipPath id="clip0_4_2073">
<rect width="24" height="18.75" fill="white" transform="translate(3 6)"/>
</clipPath>
</defs>
</svg>
