<svg width="20" height="20" viewBox="0 0 20 20" fill="none" xmlns="http://www.w3.org/2000/svg">
<path d="M10.5214 10.53C10.9374 10.3806 11.3214 10.2393 11.7041 10.1073C11.7881 10.0767 11.8786 10.0685 11.9667 10.0834C12.0549 10.0984 12.1376 10.136 12.2068 10.1926C13.1668 10.9293 13.6801 11.9033 13.7108 13.1113C13.7328 13.9693 13.7154 14.8293 13.7154 15.688V15.8293H6.26344V15.6806C6.26344 14.838 6.25078 13.9953 6.26344 13.1533C6.28544 11.9313 6.79677 10.9453 7.76211 10.198C7.94677 10.056 8.14211 10.058 8.35744 10.136C8.68344 10.254 9.01544 10.3573 9.34878 10.4513C9.45544 10.4813 9.45611 10.5366 9.45544 10.618C9.45544 11.466 9.45544 12.314 9.45544 13.162C9.45185 13.2792 9.48736 13.3944 9.5564 13.4892C9.62544 13.5841 9.72408 13.6533 9.83678 13.686C9.94267 13.7223 10.0578 13.7217 10.1632 13.6841C10.2687 13.6466 10.3583 13.5744 10.4174 13.4793C10.4799 13.3702 10.5138 13.247 10.5161 13.1213C10.5248 12.3066 10.5208 11.492 10.5208 10.6773L10.5214 10.53Z" fill="#4A4A4A"/>
<path d="M9.99201 9.45415C9.46542 9.45401 8.9507 9.29761 8.51305 9.00476C8.07539 8.71191 7.73448 8.29577 7.53348 7.80904C7.33248 7.32231 7.28043 6.78689 7.38393 6.27056C7.48742 5.75423 7.74181 5.28023 8.11487 4.90857C8.48793 4.53691 8.96289 4.28431 9.4796 4.18276C9.99632 4.0812 10.5315 4.13527 11.0175 4.3381C11.5035 4.54093 11.9183 4.88341 12.2095 5.32216C12.5007 5.76092 12.6552 6.27622 12.6533 6.80281C12.6493 7.50647 12.3673 8.18002 11.8688 8.67665C11.3703 9.17328 10.6957 9.45275 9.99201 9.45415Z" fill="#4A4A4A"/>
<path d="M14.1777 10.834C14.2603 10.8487 14.3419 10.8678 14.4224 10.8913C14.9987 11.1056 15.6328 11.1056 16.2091 10.8913C16.3068 10.8521 16.4131 10.8391 16.5174 10.8536C16.6217 10.8681 16.7204 10.9096 16.8037 10.974C17.5604 11.5113 17.9611 12.2407 17.9764 13.1667C17.9884 13.864 17.9797 14.562 17.9764 15.26C17.9764 15.62 17.7577 15.8393 17.3984 15.84C16.5317 15.84 15.6704 15.84 14.7824 15.84V15.6567C14.7824 14.87 14.7784 14.084 14.7824 13.2973C14.7961 12.487 14.6073 11.6861 14.2331 10.9673C14.2164 10.9347 14.2044 10.9007 14.1777 10.834Z" fill="#4A4A4A"/>
<path d="M5.81615 10.834C5.52646 11.3501 5.33415 11.915 5.24881 12.5007C5.21784 12.7198 5.20114 12.9407 5.19881 13.162C5.19348 13.9867 5.19881 14.812 5.19881 15.6373V15.834C5.13215 15.834 5.08148 15.842 5.02815 15.842C4.21881 15.842 3.4097 15.842 2.60081 15.842C2.21881 15.842 2.00481 15.628 2.00415 15.2467C2.00415 14.554 1.99481 13.862 2.00415 13.1693C2.02015 12.2213 2.43615 11.484 3.21815 10.95C3.29235 10.896 3.37894 10.8616 3.46994 10.85C3.56095 10.8383 3.65342 10.8498 3.73881 10.8833C4.33525 11.108 4.99304 11.108 5.58948 10.8833C5.66407 10.8627 5.73974 10.8462 5.81615 10.834Z" fill="#4A4A4A"/>
<path d="M4.67255 6.26172C5.0937 6.26358 5.50484 6.39037 5.85389 6.62603C6.20294 6.86169 6.47422 7.19563 6.63337 7.58556C6.79252 7.97549 6.83239 8.40388 6.74792 8.81648C6.66345 9.22908 6.45846 9.60735 6.15888 9.90337C5.85931 10.1994 5.47863 10.3999 5.06505 10.4794C4.65147 10.5589 4.22359 10.514 3.83558 10.3502C3.44758 10.1864 3.1169 9.91116 2.88541 9.55932C2.65393 9.20748 2.53205 8.79487 2.53522 8.37372C2.54084 7.81094 2.76863 7.27318 3.16897 6.87759C3.5693 6.482 4.10974 6.26064 4.67255 6.26172Z" fill="#4A4A4A"/>
<path d="M17.4455 8.39174C17.4455 8.81347 17.3203 9.22571 17.0858 9.57621C16.8513 9.92672 16.518 10.1997 16.1282 10.3606C15.7384 10.5215 15.3095 10.5631 14.8961 10.48C14.4826 10.3969 14.1031 10.193 13.8056 9.89407C13.5082 9.59512 13.3062 9.21459 13.2252 8.80071C13.1442 8.38683 13.1879 7.95823 13.3508 7.56921C13.5136 7.18019 13.7883 6.84828 14.14 6.61552C14.4916 6.38276 14.9045 6.25963 15.3262 6.26175C15.889 6.26544 16.4275 6.49137 16.8245 6.89033C17.2215 7.28929 17.4447 7.82894 17.4455 8.39174Z" fill="#4A4A4A"/>
</svg>
