<svg width="14" height="23" viewBox="0 0 14 23" fill="#2CA5C3" xmlns="http://www.w3.org/2000/svg">
<path d="M1.10089 22.2774C1.60979 22.2774 1.91098 21.9866 2.84569 21.083L6.90651 17.0846C6.95844 17.0326 7.05191 17.0326 7.09345 17.0846L11.1543 21.083C12.089 21.9866 12.3902 22.2774 12.8991 22.2774C13.5949 22.2774 14 21.8204 14 21.0104V2.9807C14 1.00742 13.0133 0 11.0608 0H2.93916C0.986644 0 0 1.00742 0 2.9807V21.0104C0 21.8204 0.405043 22.2774 1.10089 22.2774ZM1.95252 19.4732C1.80712 19.6187 1.64095 19.5771 1.64095 19.3694V3.00148C1.64095 2.1083 2.1083 1.64095 3.02225 1.64095H10.9881C11.8916 1.64095 12.359 2.1083 12.359 3.00148V19.3694C12.359 19.5771 12.2032 19.6187 12.0474 19.4732L7.55042 15.1112C7.21808 14.7892 6.78188 14.7892 6.44953 15.1112L1.95252 19.4732Z" fill="#2CA5C3"/>
</svg>
