<svg width="20" height="19" viewBox="0 0 20 19" fill="none" xmlns="http://www.w3.org/2000/svg">
<g clip-path="url(#clip0_6_7066)">
<path d="M13.6958 18.2611H18.5982C19.4562 18.2611 20 17.6532 20 16.7029V5.77898C20 4.82869 19.4562 4.22085 18.5982 4.22085H14.1121V16.7029C14.1121 17.2765 13.9762 17.7987 13.6958 18.2611ZM16.0408 8.55278V7.183C16.0408 7.00322 16.1513 6.88336 16.3381 6.88336H17.7485C17.9269 6.88336 18.0459 7.00322 18.0459 7.183V8.55278C18.0459 8.73256 17.9269 8.86096 17.7485 8.86096H16.3381C16.1513 8.86096 16.0408 8.73256 16.0408 8.55278ZM16.0408 11.9258V10.5561C16.0408 10.3763 16.1513 10.2564 16.3381 10.2564H17.7485C17.9269 10.2564 18.0459 10.3763 18.0459 10.5561V11.9258C18.0459 12.1056 17.9269 12.2255 17.7485 12.2255H16.3381C16.1513 12.2255 16.0408 12.1056 16.0408 11.9258ZM16.0408 15.299V13.9292C16.0408 13.7494 16.1513 13.6209 16.3381 13.6209H17.7485C17.9269 13.6209 18.0459 13.7494 18.0459 13.9292V15.299C18.0459 15.4787 17.9269 15.5986 17.7485 15.5986H16.3381C16.1513 15.5986 16.0408 15.4787 16.0408 15.299ZM0 16.7029C0 17.6532 0.543755 18.2611 1.41036 18.2611H11.5378C12.4044 18.2611 12.9482 17.6532 12.9482 16.7029V1.56691C12.9482 0.616628 12.4044 0.00878906 11.5378 0.00878906H1.41036C0.543755 0.00878906 0 0.616628 0 1.56691V16.7029ZM3.53441 16.8827V14.1004C3.53441 13.7066 3.78929 13.4497 4.18012 13.4497H8.8445C9.23531 13.4497 9.49022 13.7066 9.49022 14.1004V16.8827H3.53441ZM3.25403 4.60611V2.94525C3.25403 2.73122 3.38997 2.57712 3.60237 2.57712H5.30161C5.51401 2.57712 5.66694 2.73122 5.66694 2.94525V4.60611C5.66694 4.82869 5.51401 4.97424 5.30161 4.97424H3.60237C3.38997 4.97424 3.25403 4.82869 3.25403 4.60611ZM7.35768 4.60611V2.94525C7.35768 2.73122 7.49362 2.57712 7.71452 2.57712H9.40522C9.61767 2.57712 9.77062 2.73122 9.77062 2.94525V4.60611C9.77062 4.82869 9.61767 4.97424 9.40522 4.97424H7.71452C7.49362 4.97424 7.35768 4.82869 7.35768 4.60611ZM3.25403 8.09904V6.43818C3.25403 6.22416 3.38997 6.07006 3.60237 6.07006H5.30161C5.51401 6.07006 5.66694 6.22416 5.66694 6.43818V8.09904C5.66694 8.32163 5.51401 8.46716 5.30161 8.46716H3.60237C3.38997 8.46716 3.25403 8.32163 3.25403 8.09904ZM7.35768 8.09904V6.43818C7.35768 6.22416 7.49362 6.07006 7.71452 6.07006H9.40522C9.61767 6.07006 9.77062 6.22416 9.77062 6.43818V8.09904C9.77062 8.32163 9.61767 8.46716 9.40522 8.46716H7.71452C7.49362 8.46716 7.35768 8.32163 7.35768 8.09904ZM3.25403 11.592V9.9311C3.25403 9.70851 3.38997 9.56299 3.60237 9.56299H5.30161C5.51401 9.56299 5.66694 9.70851 5.66694 9.9311V11.592C5.66694 11.806 5.51401 11.9601 5.30161 11.9601H3.60237C3.38997 11.9601 3.25403 11.806 3.25403 11.592ZM7.35768 11.592V9.9311C7.35768 9.70851 7.49362 9.56299 7.71452 9.56299H9.40522C9.61767 9.56299 9.77062 9.70851 9.77062 9.9311V11.592C9.77062 11.806 9.61767 11.9601 9.40522 11.9601H7.71452C7.49362 11.9601 7.35768 11.806 7.35768 11.592Z" fill="#4A4A4A"/>
</g>
<defs>
<clipPath id="clip0_6_7066">
<rect width="20" height="18.2609" fill="white"/>
</clipPath>
</defs>
</svg>
