<svg width="28" height="31" viewBox="0 0 28 31" fill="none" xmlns="http://www.w3.org/2000/svg">
<path d="M15.603 0.651244C14.7035 -0.217081 13.2965 -0.217081 12.397 0.651244L1.09545 11.5612C0.3962 12.2363 0 13.1755 0 14.158V27.4263C0 29.4 1.567 31 3.5 31H7C8.933 31 10.5 29.4 10.5 27.4263V21.4703C10.5 20.8125 11.0223 20.2791 11.6667 20.2791H16.3333C16.9777 20.2791 17.5 20.8125 17.5 21.4703V27.4263C17.5 29.4 19.0671 31 21 31H24.5C26.4329 31 28 29.4 28 27.4263V14.158C28 13.1755 27.6038 12.2363 26.9045 11.5612L15.603 0.651244Z" fill="#2CA5C3"/>
</svg>
