<svg width="20" height="20" viewBox="0 0 20 20" fill="none" xmlns="http://www.w3.org/2000/svg">
<path d="M10.154 15.0752C9.95432 15.0752 9.79741 15.0102 9.68329 14.8802C9.56917 14.7502 9.51211 14.5702 9.51211 14.3402V8.35516C9.51211 8.11516 9.56917 7.93516 9.68329 7.81516C9.79741 7.68516 9.95432 7.62016 10.154 7.62016C10.3633 7.62016 10.5249 7.68516 10.639 7.81516C10.7532 7.93516 10.8102 8.11516 10.8102 8.35516V14.3402C10.8102 14.5702 10.7532 14.7502 10.639 14.8802C10.5344 15.0102 10.3728 15.0752 10.154 15.0752ZM10.154 6.00016C9.89726 6.00016 9.6928 5.93016 9.54064 5.79016C9.39799 5.64016 9.32666 5.44516 9.32666 5.20516C9.32666 4.94516 9.39799 4.75016 9.54064 4.62016C9.6928 4.48016 9.89726 4.41016 10.154 4.41016C10.4298 4.41016 10.6343 4.48016 10.7674 4.62016C10.9101 4.75016 10.9814 4.94516 10.9814 5.20516C10.9814 5.44516 10.9101 5.64016 10.7674 5.79016C10.6343 5.93016 10.4298 6.00016 10.154 6.00016Z" fill="#4A4A4A"/>
<path d="M19.1323 10C19.1323 15.1446 15.1753 19.25 10.3723 19.25C5.56935 19.25 1.6123 15.1446 1.6123 10C1.6123 4.85541 5.56935 0.75 10.3723 0.75C15.1753 0.75 19.1323 4.85541 19.1323 10Z" stroke="#4A4A4A" stroke-width="1.5"/>
</svg>
