<svg width="28" height="28" viewBox="0 0 28 28" fill="none" xmlns="http://www.w3.org/2000/svg">
<path d="M9.9923 1.3672L12.1649 2.98993L8.9489 6.36195C8.79342 6.52498 8.57757 6.61729 8.35184 6.61729H0V4.97663C0 2.71137 1.84356 0.875 4.1177 0.875H8.50992C9.04448 0.875 9.56463 1.04771 9.9923 1.3672Z" fill="#2CA5C3"/>
<path d="M10.143 7.49191L14.1068 3.33594H22.2356C24.4188 3.33594 26.2051 5.02834 26.3446 7.16788L26.3533 7.43757V14.2802C25.8381 14.099 25.2837 14.0002 24.7062 14.0002V12.3595C24.7062 11.4534 23.9688 10.7189 23.0591 10.7189H16.4708C15.5611 10.7189 14.8237 11.4534 14.8237 12.3595V14.0002C12.0948 14.0002 9.88249 16.2037 9.88249 18.9221V23.8441H4.1177C1.84356 23.8441 0 22.0077 0 19.7425V8.2579H8.35184C9.02907 8.2579 9.6766 7.98099 10.143 7.49191Z" fill="#2CA5C3"/>
<path d="M14.8231 15.6407C13.0038 15.6407 11.529 17.1097 11.529 18.922V23.8439C11.529 25.6562 13.0038 27.1253 14.8231 27.1253H24.7056C26.525 27.1253 27.9998 25.6562 27.9998 23.8439V18.922C27.9998 17.1097 26.525 15.6407 24.7056 15.6407H23.0585V13.1797C23.0585 12.7267 22.6897 12.3594 22.235 12.3594H17.2937C16.839 12.3594 16.4702 12.7267 16.4702 13.1797V15.6407H14.8231ZM18.1173 15.6407V14H21.4114V15.6407H18.1173Z" fill="#2CA5C3"/>
</svg>
