<svg width="82" height="82" viewBox="0 0 82 82" fill="none" xmlns="http://www.w3.org/2000/svg">
<g clip-path="url(#clip0_6_6898)">
<g clip-path="url(#clip1_6_6898)">
<g clip-path="url(#clip2_6_6898)">
<path d="M57.9148 51.816L56.6393 50.513L56.8962 48.7179C56.9465 48.3668 56.7059 48.0396 56.3525 47.9783L54.5456 47.665L54.5126 47.6035V33.554C54.5126 32.417 53.5765 31.4919 52.4259 31.4919H47.2278V28.1694C47.2278 26.516 45.8667 25.1708 44.1936 25.1708H34.362C32.6889 25.1708 31.3277 26.5159 31.3277 28.1694V31.4919H26.1297C24.9791 31.4919 24.043 32.417 24.043 33.5541V53.2197C24.0429 54.3567 24.979 55.2818 26.1297 55.2818H36.2839C36.6514 55.2818 36.9492 54.9875 36.9492 54.6244C36.9492 54.2613 36.6514 53.9669 36.2839 53.9669H26.1297C25.7127 53.9669 25.3735 53.6317 25.3735 53.2197V39.55C26.7558 41.552 29.0823 42.869 31.7145 42.869H35.5327V45.8703C35.5327 46.2334 35.8306 46.5277 36.198 46.5277H42.3574C42.7249 46.5277 43.0227 46.2334 43.0227 45.8703V42.869H46.8409C49.4731 42.869 51.7996 41.552 53.1819 39.55V45.7194C53.0572 45.7036 52.9268 45.7225 52.8058 45.781L51.1577 46.5772L49.5095 45.781C49.1871 45.6252 48.7979 45.7503 48.6297 46.0635L47.7699 47.665L45.9629 47.9783C45.6095 48.0396 45.3689 48.3668 45.4192 48.7179L45.6761 50.513L44.4006 51.816C44.1511 52.0709 44.1511 52.4754 44.4006 52.7303L45.6111 53.9669H42.2714C41.904 53.9669 41.6061 54.2613 41.6061 54.6244C41.6061 54.9875 41.904 55.2818 42.2714 55.2818H45.4974L45.4191 55.8283C45.3689 56.1795 45.6095 56.5067 45.9629 56.568L47.7699 56.8812L48.6297 58.4827C48.7978 58.7959 49.1872 58.9209 49.5095 58.7652L51.1577 57.9691L52.8058 58.7652C52.8997 58.8106 52.9993 58.8322 53.0975 58.8322C53.3362 58.8322 53.5665 58.7047 53.6856 58.4827L54.5454 56.8812L56.3524 56.568C56.7058 56.5067 56.9464 56.1795 56.8962 55.8283L56.6393 54.0332L57.9148 52.7303C58.1643 52.4754 58.1643 52.0709 57.9148 51.816ZM32.6582 28.1694C32.6582 27.241 33.4225 26.4857 34.362 26.4857H44.1934C45.1329 26.4857 45.8971 27.241 45.8971 28.1694V31.4919H44.5666V28.458C44.5666 28.0949 44.2688 27.8006 43.9013 27.8006H34.654C34.2866 27.8006 33.9887 28.0949 33.9887 28.458V31.4919H32.6582V28.1694ZM43.236 31.4919H35.3193V29.1155H43.236V31.4919ZM41.6921 45.2128H36.8633V42.869H41.6921V45.2128ZM46.841 41.5541H31.7145C28.218 41.5541 25.3735 38.743 25.3735 35.2877V33.554C25.3735 33.142 25.7127 32.8068 26.1297 32.8068H52.4258C52.8427 32.8068 53.182 33.142 53.182 33.554V35.2877C53.1819 38.743 50.3374 41.5541 46.841 41.5541ZM55.4569 53.35C55.3142 53.4957 55.2476 53.6983 55.2763 53.8992L55.4886 55.3827L53.9953 55.6416C53.7931 55.6767 53.6186 55.8019 53.5225 55.9811L52.8119 57.3046L51.4497 56.6466C51.3576 56.6021 51.2575 56.5798 51.1575 56.5798C51.0575 56.5798 50.9575 56.6021 50.8653 56.6466L49.5032 57.3046L48.7925 55.9811C48.6964 55.8019 48.5219 55.6767 48.3198 55.6416L46.8265 55.3827L47.0388 53.8992C47.0675 53.6984 47.0009 53.4957 46.8582 53.35L45.804 52.2731L46.8582 51.1963C47.0009 51.0505 47.0675 50.8479 47.0388 50.6471L46.8265 49.1635L48.32 48.9046C48.5221 48.8695 48.6965 48.7443 48.7927 48.5651L49.5033 47.2416L50.8655 47.8995C51.0498 47.9886 51.2654 47.9886 51.4498 47.8995L52.8119 47.2416L53.5226 48.5651C53.6187 48.7443 53.7931 48.8695 53.9953 48.9046L55.4886 49.1635L55.2763 50.647C55.2476 50.8478 55.3142 51.0505 55.4569 51.1962L56.5111 52.2731L55.4569 53.35Z" fill="#2CA5C3"/>
<path d="M52.6274 50.6545L50.7626 52.4973L49.9755 51.7196C49.7157 51.4628 49.2945 51.4628 49.0347 51.7196C48.7749 51.9763 48.7749 52.3926 49.0347 52.6493L50.2921 53.892C50.4221 54.0204 50.5923 54.0845 50.7625 54.0845C50.9328 54.0845 51.1031 54.0203 51.233 53.892L53.5681 51.5843C53.8279 51.3275 53.8279 50.9112 53.5681 50.6544C53.3085 50.3977 52.8872 50.3977 52.6274 50.6545Z" fill="#2CA5C3"/>
<path d="M39.2776 55.2822C39.645 55.2822 39.9429 54.9879 39.9429 54.6248C39.9429 54.2617 39.645 53.9673 39.2776 53.9673C38.9102 53.9673 38.6123 54.2617 38.6123 54.6248C38.6123 54.9879 38.9102 55.2822 39.2776 55.2822Z" fill="#2CA5C3"/>
</g>
</g>
</g>
<rect x="41" y="-0.722947" width="59" height="59" rx="4.5" transform="rotate(45 41 -0.722947)" stroke="#2CA5C3"/>
<defs>
<clipPath id="clip0_6_6898">
<rect width="35" height="34" fill="white" transform="translate(24 25)"/>
</clipPath>
<clipPath id="clip1_6_6898">
<rect width="35" height="34" fill="white" transform="translate(24 25)"/>
</clipPath>
<clipPath id="clip2_6_6898">
<rect width="35" height="34" fill="white" transform="translate(24 25)"/>
</clipPath>
</defs>
</svg>
