<svg width="20" height="20" viewBox="0 0 20 20" fill="none" xmlns="http://www.w3.org/2000/svg">
<path d="M10.0025 9.79297C10.404 9.79297 10.7472 9.64999 11.0319 9.36403C11.3166 9.07809 11.459 8.73434 11.459 8.33278C11.459 7.93124 11.316 7.58811 11.03 7.30339C10.7441 7.01866 10.4004 6.8763 9.9988 6.8763C9.59726 6.8763 9.25412 7.01928 8.9694 7.30524C8.68468 7.59118 8.54232 7.93493 8.54232 8.33649C8.54232 8.73803 8.6853 9.08116 8.97125 9.36588C9.2572 9.65061 9.60095 9.79297 10.0025 9.79297ZM10.0007 18.3346C7.76454 16.4319 6.0944 14.6645 4.99023 13.0326C3.88607 11.4006 3.33398 9.89019 3.33398 8.5013C3.33398 6.41797 4.00412 4.75825 5.3444 3.52214C6.68468 2.28602 8.23676 1.66797 10.0007 1.66797C11.7645 1.66797 13.3166 2.28602 14.6569 3.52214C15.9972 4.75825 16.6673 6.41797 16.6673 8.5013C16.6673 9.89019 16.1152 11.4006 15.0111 13.0326C13.9069 14.6645 12.2368 16.4319 10.0007 18.3346Z" fill="#4A4A4A"/>
</svg>
