<svg width="28" height="31" viewBox="0 0 28 31" fill="none" xmlns="http://www.w3.org/2000/svg">
<path d="M8.76001 24.5999C9.04004 24.8699 9.42004 25.0199 9.80005 25.0199C10 25.0199 10.2 24.9799 10.38 24.8999C10.94 24.6599 11.3 24.1199 11.3 23.5199V20.6799H13.19V26.3799C13.19 27.0599 13.64 27.6499 14.3 27.8299L25.92 30.95C26.0401 30.9799 26.1701 30.9999 26.3001 30.9999C26.63 30.9999 26.95 30.89 27.22 30.6899C27.59 30.4099 27.8001 29.9699 27.8001 29.4999V1.49994C27.8001 1.02991 27.59 0.589913 27.22 0.309943C26.85 0.0299129 26.37 -0.0700571 25.92 0.0499329L14.3 3.16993C13.64 3.34992 13.19 3.93994 13.19 4.61994V10.32H11.3V7.47992C11.3 6.87994 10.94 6.33991 10.38 6.09992C9.83002 5.85993 9.19001 5.97992 8.76001 6.39991L0.45001 14.4199C0.16003 14.7 0 15.0899 0 15.4999C0 15.9099 0.16003 16.2999 0.45001 16.5799L8.76001 24.5999ZM16.19 5.7699L24.8001 3.4599V27.5399L16.19 25.2299V20.6799H19.12C19.95 20.6799 20.62 20.01 20.62 19.1799V11.8199C20.62 10.9899 19.95 10.3199 19.12 10.3199H16.19V5.7699Z" fill="#2CA5C3"/>
</svg>
