<svg width="44" height="34" viewBox="0 0 44 34" fill="none" xmlns="http://www.w3.org/2000/svg">
<rect x="0.368774" width="42.8908" height="34" rx="6" fill="#2CA5C3"/>
<path d="M21.8142 15C21.4131 15 21.016 15.0626 20.6454 15.1843C20.2749 15.306 19.9382 15.4843 19.6546 15.7091C19.371 15.9339 19.146 16.2008 18.9925 16.4946C18.839 16.7883 18.76 17.1032 18.76 17.4211C18.76 17.739 18.839 18.0539 18.9925 18.3476C19.146 18.6414 19.371 18.9083 19.6546 19.1331C19.9382 19.3579 20.2749 19.5362 20.6454 19.6579C21.016 19.7796 21.4131 19.8422 21.8142 19.8422C22.6243 19.8421 23.401 19.5868 23.9737 19.1327C24.5463 18.6785 24.8679 18.0627 24.8677 17.4205C24.8676 16.7784 24.5456 16.1627 23.9727 15.7087C23.3998 15.2548 22.6229 14.9999 21.8128 15H21.8142ZM12.1007 15C11.6996 15 11.3025 15.0626 10.9319 15.1843C10.5614 15.306 10.2247 15.4843 9.94106 15.7091C9.65746 15.9339 9.43248 16.2008 9.279 16.4946C9.12551 16.7883 9.04651 17.1032 9.04651 17.4211C9.04651 17.739 9.12551 18.0539 9.279 18.3476C9.43248 18.6414 9.65746 18.9083 9.94106 19.1331C10.2247 19.3579 10.5614 19.5362 10.9319 19.6579C11.3025 19.7796 11.6996 19.8422 12.1007 19.8422C12.9107 19.8421 13.6875 19.5868 14.2602 19.1327C14.8328 18.6785 15.1544 18.0627 15.1542 17.4205C15.154 16.7784 14.8321 16.1627 14.2592 15.7087C13.6863 15.2548 12.9094 14.9999 12.0993 15H12.1007ZM31.5277 15C31.1267 15 30.7295 15.0626 30.3589 15.1843C29.9884 15.306 29.6517 15.4843 29.3681 15.7091C29.0845 15.9339 28.8595 16.2008 28.706 16.4946C28.5525 16.7883 28.4735 17.1032 28.4735 17.4211C28.4735 17.739 28.5525 18.0539 28.706 18.3476C28.8595 18.6414 29.0845 18.9083 29.3681 19.1331C29.6517 19.3579 29.9884 19.5362 30.3589 19.6579C30.7295 19.7796 31.1267 19.8422 31.5277 19.8422C32.3378 19.8421 33.1145 19.5868 33.6872 19.1327C34.2598 18.6785 34.5814 18.0627 34.5812 17.4205C34.5811 16.7784 34.2591 16.1627 33.6862 15.7087C33.1133 15.2548 32.3364 14.9999 31.5264 15H31.5277Z" fill="white"/>
</svg>
