<svg width="34" height="34" viewBox="0 0 34 34" fill="none" xmlns="http://www.w3.org/2000/svg">
<rect width="34" height="34" rx="6" fill="#2CA5C3"/>
<path d="M17 15C16.6821 15 16.3672 15.0626 16.0735 15.1843C15.7797 15.306 15.5128 15.4843 15.288 15.7091C15.0632 15.9339 14.8849 16.2008 14.7632 16.4946C14.6415 16.7883 14.5789 17.1032 14.5789 17.4211C14.5789 17.739 14.6415 18.0539 14.7632 18.3476C14.8849 18.6414 15.0632 18.9083 15.288 19.1331C15.5128 19.3579 15.7797 19.5362 16.0735 19.6579C16.3672 19.7796 16.6821 19.8422 17 19.8422C17.6421 19.8421 18.2579 19.5868 18.7118 19.1327C19.1658 18.6785 19.4207 18.0627 19.4206 17.4205C19.4204 16.7784 19.1652 16.1627 18.711 15.7087C18.2569 15.2548 17.641 14.9999 16.9989 15H17ZM9.30001 15C8.98206 15 8.66723 15.0626 8.37349 15.1843C8.07975 15.306 7.81285 15.4843 7.58803 15.7091C7.36321 15.9339 7.18487 16.2008 7.0632 16.4946C6.94153 16.7883 6.87891 17.1032 6.87891 17.4211C6.87891 17.739 6.94153 18.0539 7.0632 18.3476C7.18487 18.6414 7.36321 18.9083 7.58803 19.1331C7.81285 19.3579 8.07975 19.5362 8.37349 19.6579C8.66723 19.7796 8.98206 19.8422 9.30001 19.8422C9.94212 19.8421 10.5579 19.5868 11.0118 19.1327C11.4658 18.6785 11.7207 18.0627 11.7206 17.4205C11.7204 16.7784 11.4652 16.1627 11.011 15.7087C10.5569 15.2548 9.94102 14.9999 9.29891 15H9.30001ZM24.7 15C24.3821 15 24.0672 15.0626 23.7735 15.1843C23.4797 15.306 23.2128 15.4843 22.988 15.7091C22.7632 15.9339 22.5849 16.2008 22.4632 16.4946C22.3415 16.7883 22.2789 17.1032 22.2789 17.4211C22.2789 17.739 22.3415 18.0539 22.4632 18.3476C22.5849 18.6414 22.7632 18.9083 22.988 19.1331C23.2128 19.3579 23.4797 19.5362 23.7735 19.6579C24.0672 19.7796 24.3821 19.8422 24.7 19.8422C25.3421 19.8421 25.9579 19.5868 26.4118 19.1327C26.8658 18.6785 27.1207 18.0627 27.1206 17.4205C27.1204 16.7784 26.8652 16.1627 26.411 15.7087C25.9569 15.2548 25.341 14.9999 24.6989 15H24.7Z" fill="white"/>
</svg>
