<svg width="381" height="461" viewBox="0 0 381 461" fill="none" xmlns="http://www.w3.org/2000/svg">
<path d="M377.032 125.503C356.224 189.44 294.956 238.836 320.157 293.771C345.126 348.706 377.957 459.269 194.384 460.192C27.9209 461.116 -6.99026 380.79 1.33292 309.005C2.02652 303.234 2.95132 297.233 4.33852 291.463C5.95691 283.845 8.03771 276.69 10.3497 269.535C10.8121 268.15 11.2745 266.765 11.7369 265.38C13.1241 261.456 14.5113 257.763 16.1297 254.3C17.5169 251.069 18.9041 247.838 20.5225 244.606C23.2969 239.066 26.0713 233.757 29.0769 228.91C29.7705 227.987 30.2329 227.064 30.9265 226.14C31.3889 225.679 31.6201 224.986 31.8512 224.525C32.776 222.909 33.932 221.524 34.8568 220.139C36.0128 218.523 37.1688 216.908 38.3248 215.523C38.7872 214.83 39.2496 214.369 39.712 213.676C43.4112 209.06 47.1104 205.597 50.3472 202.828C111.615 155.509 152.537 153.201 137.047 102.421C121.557 51.4094 176.813 9.40012 233.457 2.01387C246.404 0.39813 259.12 0.16731 270.68 1.32141C290.795 3.16797 309.059 8.93848 324.55 17.248C336.341 23.4802 346.745 31.3281 355.068 40.33C358.767 44.254 362.004 48.1779 364.778 52.3327C380.038 74.4915 385.124 100.574 377.032 125.503Z" fill="#E0F4FC"/>
</svg>
