<svg width="27" height="34" viewBox="0 0 27 34" fill="none" xmlns="http://www.w3.org/2000/svg">
<path d="M21.9375 17C24.7335 17 27 19.2833 27 22.1C27 25.8947 25.451 28.9349 22.909 30.9903C20.4072 33.0133 17.0541 34 13.5 34C9.94586 34 6.59279 33.0133 4.09101 30.9903C1.54902 28.9349 0 25.8947 0 22.1C0 19.4492 2.00771 17.2705 4.57488 17.0233L5.06243 17H21.9375ZM13.5 0C17.2279 0 20.25 3.04446 20.25 6.8C20.25 10.5555 17.2279 13.6 13.5 13.6C9.77208 13.6 6.75 10.5555 6.75 6.8C6.75 3.04446 9.77208 0 13.5 0Z" fill="white"/>
</svg>
