<svg width="80" height="80" viewBox="0 0 80 80" fill="none" xmlns="http://www.w3.org/2000/svg">
<g clip-path="url(#clip0_52_6436)">
<path d="M40 79.9999C61.8825 79.9999 80 61.8911 80 40.0195C80 18.1871 61.8431 0.0390625 39.9607 0.0390625C18.1176 0.0390625 0 18.1871 0 40.0195C0 61.8911 18.1568 79.9999 40 79.9999ZM21.5294 60.5586C19.8823 60.5586 19.1372 59.5002 19.1372 58.0107C19.1372 53.6209 25.8039 42.136 40 42.136C54.196 42.136 60.8625 53.6209 60.8625 58.0107C60.8625 59.5002 60.1176 60.5586 58.4703 60.5586H21.5294ZM40 38.8045C34.2745 38.7652 29.6078 33.9441 29.6078 27.4375C29.6078 21.4012 34.2745 16.384 40 16.384C45.7254 16.384 50.392 21.4012 50.392 27.4375C50.392 33.9441 45.7254 38.8436 40 38.8045Z" fill="#CACACA"/>
</g>
<defs>
<clipPath id="clip0_52_6436">
<rect width="80" height="80" fill="white"/>
</clipPath>
</defs>
</svg>
