<svg width="15" height="15" viewBox="0 0 15 15" fill="none" xmlns="http://www.w3.org/2000/svg">
<mask id="mask0_1_287" style="mask-type:luminance" maskUnits="userSpaceOnUse" x="0" y="0" width="15" height="15">
<path d="M0 -9.53674e-07H15V15H0V-9.53674e-07Z" fill="white"/>
</mask>
<g mask="url(#mask0_1_287)">
<path d="M14.6053 13.0263C14.6053 13.445 14.4389 13.8467 14.1428 14.1428C13.8467 14.4389 13.4451 14.6052 13.0263 14.6052H1.97368C1.55492 14.6052 1.15331 14.4389 0.857201 14.1428C0.56109 13.8467 0.394737 13.445 0.394737 13.0263V1.97365C0.394737 1.55488 0.56109 1.15327 0.857201 0.857162C1.15331 0.561051 1.55492 0.394698 1.97368 0.394698H13.0263C13.4451 0.394698 13.8467 0.561051 14.1428 0.857162C14.4389 1.15327 14.6053 1.55488 14.6053 1.97365V13.0263Z" fill="#FF0000"/>
<path d="M6.43579 7.17859L4.45342 4.48609C4.33066 4.32701 4.25724 4.14346 4.25724 3.94728C4.25724 3.40886 4.66105 3.05399 5.18763 3.05399C5.49355 3.05399 5.81171 3.26201 5.98303 3.50675L7.50079 5.66083L9.01816 3.50675C9.18987 3.26201 9.50803 3.05399 9.81355 3.05399C10.3401 3.05399 10.7443 3.40886 10.7443 3.94728C10.7443 4.14346 10.6709 4.32701 10.5482 4.48609L8.56539 7.17859L10.9887 10.4344C11.0866 10.569 11.1967 10.8015 11.1967 11.0585C11.1967 11.5728 10.8051 11.915 10.2671 11.915C9.93632 11.915 9.69197 11.7686 9.50803 11.5116L7.50079 8.72083L5.49355 11.5116C5.30961 11.7686 5.06487 11.915 4.73447 11.915C4.19605 11.915 3.80447 11.5728 3.80447 11.0585C3.80447 10.8015 3.91461 10.569 4.0125 10.4344L6.43579 7.17859Z" fill="white"/>
</g>
</svg>
