<svg width="28" height="35" viewBox="0 0 28 35" fill="none" xmlns="http://www.w3.org/2000/svg">
<path d="M3.42086 0C1.53156 0 0 1.43926 0 3.2147V31.0754C0 32.8508 1.53156 34.2901 3.42086 34.2901H23.946C25.8352 34.2901 27.3669 32.8508 27.3669 31.0754V3.2147C27.3669 1.43926 25.8352 0 23.946 0H3.42086ZM19.5899 10.6984L19.3849 10.7157H7.982C7.35224 10.7157 6.84172 10.2359 6.84172 9.6441C6.84172 9.11804 7.2451 8.68052 7.77702 8.5898L7.982 8.57253H19.3849C20.0145 8.57253 20.5251 9.05229 20.5251 9.6441C20.5251 10.1702 20.1217 10.6077 19.5899 10.6984ZM19.5899 18.1993L19.3849 18.2166H7.982C7.35224 18.2166 6.84172 17.7368 6.84172 17.1451C6.84172 16.619 7.2451 16.1815 7.77702 16.0908L7.982 16.0735H19.3849C20.0145 16.0735 20.5251 16.5533 20.5251 17.1451C20.5251 17.6712 20.1217 18.1086 19.5899 18.1993ZM19.5899 25.7002L19.3849 25.7176H7.982C7.35224 25.7176 6.84172 25.2377 6.84172 24.646C6.84172 24.1199 7.2451 23.6825 7.77702 23.5918L7.982 23.5745H19.3849C20.0145 23.5745 20.5251 24.0543 20.5251 24.646C20.5251 25.1722 20.1217 25.6096 19.5899 25.7002Z" fill="#2CA5C3"/>
</svg>
