<svg width="25" height="23" viewBox="0 0 25 23" fill="none" xmlns="http://www.w3.org/2000/svg">
<g clip-path="url(#clip0_6_6840)">
<path fill-rule="evenodd" clip-rule="evenodd" d="M14.2555 6.13048C14.3368 6.04899 14.4333 5.98434 14.5396 5.94023C14.6459 5.89612 14.7599 5.87341 14.875 5.87341C14.9901 5.87341 15.104 5.89612 15.2103 5.94023C15.3166 5.98434 15.4132 6.04899 15.4945 6.13048L20.7445 11.3805C20.826 11.4618 20.8906 11.5583 20.9347 11.6646C20.9788 11.7709 21.0015 11.8849 21.0015 12C21.0015 12.1151 20.9788 12.229 20.9347 12.3353C20.8906 12.4416 20.826 12.5382 20.7445 12.6195L15.4945 17.8695C15.3302 18.0338 15.1073 18.1261 14.875 18.1261C14.6426 18.1261 14.4198 18.0338 14.2555 17.8695C14.0912 17.7052 13.9989 17.4823 13.9989 17.25C13.9989 17.0176 14.0912 16.7948 14.2555 16.6305L18.8877 12L14.2555 7.36948C14.174 7.2882 14.1093 7.19164 14.0652 7.08534C14.0211 6.97903 13.9984 6.86507 13.9984 6.74998C13.9984 6.63488 14.0211 6.52092 14.0652 6.41462C14.1093 6.30831 14.174 6.21176 14.2555 6.13048Z" fill="#4A4A4A"/>
<path fill-rule="evenodd" clip-rule="evenodd" d="M7 12C7 11.7679 7.09219 11.5454 7.25628 11.3813C7.42038 11.2172 7.64294 11.125 7.875 11.125H19.25C19.4821 11.125 19.7046 11.2172 19.8687 11.3813C20.0328 11.5454 20.125 11.7679 20.125 12C20.125 12.2321 20.0328 12.4546 19.8687 12.6187C19.7046 12.7828 19.4821 12.875 19.25 12.875H7.875C7.64294 12.875 7.42038 12.7828 7.25628 12.6187C7.09219 12.4546 7 12.2321 7 12Z" fill="#4A4A4A"/>
</g>
<defs>
<clipPath id="clip0_6_6840">
<rect width="25" height="23" fill="white"/>
</clipPath>
</defs>
</svg>
