<svg width="14" height="15" viewBox="0 0 14 15" fill="none" xmlns="http://www.w3.org/2000/svg">
<g clip-path="url(#clip0_6_6804)">
<path d="M0.0466667 2.67668V14.53C0.0155556 14.6856 0.0777778 14.8022 0.233333 14.88C0.388889 14.9578 0.528889 14.9656 0.653333 14.9033L5.27333 12.3833L9.89333 14.9033C10.0178 14.9656 10.1578 14.9578 10.3133 14.88C10.4689 14.8022 10.5467 14.6856 10.5467 14.53V2.67668C10.5467 2.21001 10.3756 1.80556 10.0333 1.46334C9.69111 1.12112 9.27111 0.950009 8.77333 0.950009H1.77333C1.27556 0.950009 0.855556 1.12112 0.513333 1.46334C0.171111 1.80556 0 2.22556 0 2.72334L0.0466667 2.67668Z" fill="#2CA5C3"/>
</g>
<defs>
<clipPath id="clip0_6_6804">
<rect width="14" height="14" fill="white" transform="matrix(1 0 0 -1 0 14.95)"/>
</clipPath>
</defs>
</svg>
