<svg width="15" height="15" viewBox="0 0 15 15" fill="none" xmlns="http://www.w3.org/2000/svg">
<path d="M12.5 0H2.5C1.83696 0 1.20107 0.263392 0.732233 0.732233C0.263392 1.20107 0 1.83696 0 2.5V12.5C0 13.163 0.263392 13.7989 0.732233 14.2678C1.20107 14.7366 1.83696 15 2.5 15H12.5C13.163 15 13.7989 14.7366 14.2678 14.2678C14.7366 13.7989 15 13.163 15 12.5V2.5C15 1.83696 14.7366 1.20107 14.2678 0.732233C13.7989 0.263392 13.163 0 12.5 0ZM11.0833 5.50833L7.275 10.5083C7.19737 10.6092 7.09767 10.6909 6.98355 10.7472C6.86944 10.8036 6.74393 10.833 6.61667 10.8333C6.49009 10.834 6.36502 10.8059 6.25095 10.751C6.13688 10.6961 6.03681 10.616 5.95833 10.5167L3.925 7.925C3.8577 7.83855 3.80808 7.73968 3.77899 7.63405C3.74989 7.52843 3.74189 7.4181 3.75543 7.30938C3.76897 7.20066 3.80379 7.09567 3.85791 7.0004C3.91203 6.90514 3.98438 6.82147 4.07083 6.75417C4.24543 6.61824 4.46688 6.55725 4.68645 6.5846C4.79518 6.59814 4.90017 6.63296 4.99543 6.68708C5.09069 6.7412 5.17436 6.81355 5.24167 6.9L6.6 8.63333L9.75 4.46667C9.81676 4.37912 9.9001 4.30558 9.99528 4.25024C10.0905 4.1949 10.1956 4.15885 10.3047 4.14415C10.4138 4.12945 10.5248 4.13638 10.6312 4.16455C10.7376 4.19272 10.8375 4.24158 10.925 4.30833C11.0125 4.37509 11.0861 4.45843 11.1414 4.55361C11.1968 4.64879 11.2328 4.75393 11.2475 4.86304C11.2622 4.97215 11.2553 5.08309 11.2271 5.18952C11.1989 5.29595 11.1501 5.39579 11.0833 5.48333V5.50833Z" fill="#2CA5C3"/>
</svg>
