<svg width="24" height="17" viewBox="0 0 24 17" fill="none" xmlns="http://www.w3.org/2000/svg">
<g clip-path="url(#clip0_6_7162)">
<path d="M7.36602 10.869C7.86742 12.174 8.65742 13.4633 9.71342 14.7054C10.0476 15.0985 10.0932 15.6645 9.81972 16.1047C9.60702 16.4507 9.25762 16.6393 8.87772 16.6393C8.77142 16.6393 8.66502 16.6315 8.55862 16.5922C6.32532 15.9161 1.10632 13.5183 0.962017 5.82974C0.908917 2.86598 3.00552 0.318861 5.73272 0.027985C7.24442 -0.129253 8.74862 0.381714 9.86532 1.41944C10.982 2.46504 11.6201 3.95874 11.6201 5.5153C11.6201 8.1096 9.84252 10.3816 7.36602 10.869Z" fill="#2CA5C3"/>
<path d="M18.1202 0.027985C19.6243 -0.129253 21.1284 0.381714 22.2451 1.41944C23.3619 2.46504 24 3.95874 24 5.51531C24 8.1096 22.2224 10.3816 19.7459 10.869C20.2473 12.174 21.0373 13.4633 22.0932 14.7054C22.4275 15.0985 22.4731 15.6645 22.1996 16.1047C21.9869 16.4506 21.6374 16.6393 21.2576 16.6393C21.1513 16.6393 21.0449 16.6315 20.9385 16.5921C18.7051 15.9161 13.4862 13.5183 13.3419 5.82974V5.71971C13.3419 2.80308 15.4158 0.318861 18.1202 0.027985Z" fill="#2CA5C3"/>
</g>
<defs>
<clipPath id="clip0_6_7162">
<rect width="24" height="17" fill="white" transform="matrix(-1 0 0 1 24 0)"/>
</clipPath>
</defs>
</svg>
