<svg width="151" height="250" viewBox="0 0 151 250" fill="none" xmlns="http://www.w3.org/2000/svg">
<g clip-path="url(#clip0_1_216)">
<path d="M26 0C-43.0052 0 -99 55.9948 -99 125C-99 194.005 -43.0052 250 26 250C95.0052 250 151 194.005 151 125C151 55.9948 95.0052 0 26 0ZM26 5.20833C92.1875 5.20833 145.792 58.8073 145.792 125C145.792 191.193 92.1875 244.792 26 244.792C-40.1875 244.792 -93.7917 191.193 -93.7917 125C-93.7917 58.8073 -40.1875 5.20833 26 5.20833ZM96.4323 41.6667V41.6771C96.349 41.6731 96.2656 41.6731 96.1823 41.6771C95.5379 41.7062 94.9273 41.9735 94.4688 42.4271L78.8438 58.0521C78.5022 58.3947 78.2628 58.8256 78.1524 59.2966C78.042 59.7676 78.065 60.2601 78.2188 60.7188L80.3125 67.0052L63.9583 83.3594C52.3601 72.6158 37.1325 66.6483 21.3229 66.651C-13.4583 66.651 -41.7083 94.8958 -41.7083 129.677C-41.7083 164.458 -13.4583 192.708 21.3229 192.708C56.099 192.708 84.3594 164.458 84.3594 129.677C84.3594 113.224 77.9844 98.276 67.6406 87.0469L83.9948 70.6927L90.2812 72.7865C90.7404 72.9396 91.2331 72.9618 91.7042 72.8504C92.1752 72.7391 92.6059 72.4987 92.9479 72.1562L108.573 56.5313C108.888 56.2173 109.118 55.8278 109.24 55.3999C109.362 54.972 109.372 54.52 109.269 54.0871C109.167 53.6541 108.955 53.2546 108.655 52.9266C108.354 52.5986 107.975 52.3531 107.552 52.2135L100.974 50.026L98.7865 43.4479C98.6204 42.9476 98.3065 42.5095 97.8862 42.1915C97.4658 41.8734 96.9589 41.6904 96.4323 41.6667ZM95.1719 49.1042L96.4427 52.9167C96.5704 53.3014 96.7862 53.651 97.0728 53.9376C97.3595 54.2242 97.709 54.44 98.0938 54.5677L101.906 55.8385L90.4011 67.3438L85.3542 65.6615L83.6667 60.6094L95.1771 49.099L95.1719 49.1042ZM21.3177 71.8646C35.7519 71.8555 49.6626 77.2707 60.2917 87.0365L52.8333 94.4948C44.1757 86.7232 32.957 82.4156 21.3229 82.3958C8.78039 82.3958 -3.24843 87.3783 -12.1173 96.2472C-20.9862 105.116 -25.9687 117.145 -25.9687 129.688C-25.9674 142.229 -20.9843 154.257 -12.1155 163.124C-3.24674 171.992 8.78129 176.974 21.3229 176.974C33.8645 176.974 45.8926 171.992 54.7613 163.124C63.6301 154.257 68.6132 142.229 68.6146 129.688C68.5922 118.057 64.2848 106.843 56.5156 98.1875L63.974 90.7188C73.7413 101.345 79.1584 115.254 79.1511 129.688C79.1559 137.283 77.6633 144.804 74.7588 151.822C71.8543 158.84 67.5948 165.217 62.224 170.587C56.8531 175.957 50.4762 180.216 43.4581 183.12C36.4399 186.024 28.9181 187.516 21.3229 187.51C13.728 187.516 6.20644 186.024 -0.81144 183.12C-7.82931 180.216 -14.2058 175.957 -19.5763 170.587C-24.9467 165.216 -29.2057 158.84 -32.1096 151.822C-35.0136 144.804 -36.5055 137.282 -36.5 129.688C-36.5041 122.093 -35.0112 114.573 -32.1067 107.556C-29.2021 100.54 -24.9429 94.1644 -19.5726 88.795C-14.2023 83.4257 -7.82622 79.1676 -0.809021 76.2644C6.20817 73.3611 13.7288 71.8695 21.3229 71.875L21.3177 71.8646ZM21.3177 92.9062C30.1708 92.9202 38.7218 96.1268 45.401 101.938L37.9635 109.375C33.2721 105.525 27.3921 103.417 21.3229 103.411C17.873 103.412 14.457 104.092 11.2699 105.413C8.08285 106.734 5.18715 108.67 2.74816 111.11C0.309174 113.55 -1.62534 116.446 -2.94495 119.634C-4.26455 122.821 -4.94339 126.238 -4.9427 129.688C-4.94132 136.653 -2.17361 143.333 2.75185 148.259C7.67731 153.184 14.3573 155.952 21.3229 155.953C28.2895 155.953 34.9708 153.186 39.8974 148.26C44.8239 143.335 47.5924 136.654 47.5938 129.688C47.5898 123.624 45.4883 117.748 41.6458 113.057L49.1042 105.599C54.9047 112.284 58.1001 120.837 58.1042 129.688C58.1014 139.441 54.225 148.793 47.3275 155.689C40.43 162.585 31.0761 166.458 21.3229 166.458C11.5688 166.46 2.21362 162.587 -4.68504 155.691C-11.5837 148.795 -15.4608 139.442 -15.4635 129.688C-15.4635 124.857 -14.512 120.074 -12.6632 115.611C-10.8145 111.148 -8.10473 107.093 -4.68872 103.677C-1.27271 100.262 2.78264 97.5527 7.24575 95.7046C11.7089 93.8564 16.4871 92.9056 21.3177 92.9062ZM21.3177 113.922C24.5988 113.929 27.796 114.959 30.4635 116.87L22.6406 124.693C22.2083 124.578 21.7917 124.432 21.3229 124.432C20.284 124.433 19.2687 124.742 18.4053 125.32C17.5418 125.898 16.8691 126.719 16.472 127.679C16.0748 128.639 15.9712 129.695 16.1742 130.714C16.3771 131.733 16.8775 132.669 17.6121 133.403C18.3468 134.138 19.2827 134.639 20.3016 134.841C21.3205 135.044 22.3768 134.941 23.3368 134.544C24.2969 134.147 25.1177 133.474 25.6955 132.61C26.2733 131.747 26.5823 130.732 26.5833 129.693C26.5833 129.229 26.4271 128.812 26.3177 128.391L34.1458 120.547C36.0533 123.214 37.082 126.409 37.0885 129.688C37.0872 133.868 35.4255 137.877 32.4691 140.832C29.5126 143.788 25.5033 145.448 21.3229 145.448C17.1434 145.447 13.1355 143.786 10.1801 140.83C7.22479 137.875 5.56389 133.867 5.56251 129.688C5.56251 125.507 7.22281 121.498 10.1783 118.541C13.1338 115.585 17.1373 113.923 21.3177 113.922Z" fill="#1F798F"/>
</g>
<defs>
<clipPath id="clip0_1_216">
<rect width="250" height="250" fill="white" transform="translate(-99)"/>
</clipPath>
</defs>
</svg>
