<svg width="151" height="110" viewBox="0 0 151 110" fill="none" xmlns="http://www.w3.org/2000/svg">
<g clip-path="url(#clip0_6_7121)">
<path d="M0 0H151V110H0V0Z" fill="#E31937"/>
<path d="M104.713 90.3957V95.2155H106.835V92.0065H114.557V95.2155H116.678V90.4041L104.713 90.3957ZM106.599 88.8366H114.757C115.89 88.6725 116.733 87.9438 116.971 87.239H104.385C104.62 87.9442 105.476 88.6725 106.599 88.8366Z" fill="white"/>
<path d="M98.2872 95.2191C99.357 94.8887 99.9325 94.3173 100.153 93.6484H90.6364L90.6428 87.2437L88.5095 87.2481V95.2191H98.2872ZM72.6454 88.8156H80.1803C81.3162 88.5751 82.2701 87.9447 82.5026 87.2459H70.533V91.9564H80.3294V93.6094L72.6451 93.614C71.441 93.8586 70.4198 94.4477 69.9104 95.2257L70.533 95.2174H82.4343V90.3905H72.6451L72.6454 88.8156Z" fill="white"/>
<path d="M54.0448 88.8294H62.2007C63.3355 88.6647 64.1788 87.9366 64.4152 87.2312H51.8303C52.0652 87.9366 52.921 88.6647 54.0448 88.8294ZM54.0448 91.9797H62.2007C63.3355 91.8168 64.1788 91.088 64.4152 90.3822H51.8303C52.0652 91.0885 52.921 91.8168 54.0448 91.9797ZM54.0448 95.2169H62.2007C63.3355 95.0526 64.1788 94.3241 64.4152 93.6191H51.8303C52.0652 94.3248 52.921 95.0526 54.0448 95.2169Z" fill="white"/>
<path d="M32.826 87.2513C33.0712 87.9479 33.8995 88.6597 35.0351 88.8383H38.4683L38.6434 88.8887V95.1996H40.7872V88.8887L40.9823 88.8383H44.4185C45.5671 88.6228 46.3769 87.9479 46.6178 87.2513V87.2359H32.826V87.2513Z" fill="white"/>
<path d="M76.4951 71.4836L87.2073 27.5969C97.4174 27.5969 100.638 28.4126 101.103 31.7417C101.103 31.7417 107.953 29.8812 111.407 26.1027C97.9265 21.5521 84.3814 21.3469 84.3814 21.3469L76.4776 28.3598L76.4954 28.3589L68.5913 21.3458C68.5913 21.3458 55.0459 21.5513 41.5669 26.1019C45.0185 29.8804 51.8706 31.7408 51.8706 31.7408C52.3383 28.4115 55.555 27.5958 65.6968 27.5906L76.4951 71.4836Z" fill="white"/>
<path d="M76.491 19.3206C87.3883 19.2599 99.8612 20.5487 112.63 24.6028C114.337 22.3651 114.776 21.3762 114.776 21.3762C100.817 17.3533 87.7455 15.9766 76.4894 15.942C65.2337 15.9766 52.1627 17.3535 38.2063 21.3762C38.2063 21.3762 38.8289 22.5943 40.3501 24.6028C53.1165 20.5487 65.5921 19.2599 76.4897 19.3206H76.491Z" fill="white"/>
</g>
<defs>
<clipPath id="clip0_6_7121">
<rect width="151" height="110" fill="white"/>
</clipPath>
</defs>
</svg>
