<svg width="36" height="49" viewBox="0 0 36 49" fill="none" xmlns="http://www.w3.org/2000/svg">
<path d="M18.1213 48.216C14.4946 48.216 11.3373 47.5547 8.64925 46.232C6.00392 44.8667 3.97725 43.032 2.56925 40.728C1.16125 38.424 0.45725 35.8213 0.45725 32.92H10.5693C10.5693 34.8827 11.2306 36.4827 12.5533 37.72C13.8759 38.9147 15.7319 39.512 18.1213 39.512C19.6999 39.512 21.0439 39.2133 22.1533 38.616C23.2626 38.0187 24.1159 37.208 24.7133 36.184C25.3106 35.1173 25.6093 33.9227 25.6093 32.6C25.6093 30.552 24.9479 28.8667 23.6253 27.544C22.3453 26.2213 20.5106 25.56 18.1213 25.56C16.8413 25.56 15.7106 25.752 14.7292 26.136C13.7906 26.52 12.9799 26.9893 12.2973 27.544L7.56125 19.544L21.7053 10.328L21.1293 9.24H2.37725V0.279999H33.8653V10.008L17.5453 20.376L12.4253 18.968C13.2786 18.712 14.1746 18.52 15.1133 18.392C16.0946 18.2213 17.1399 18.136 18.2493 18.136C21.8759 18.136 24.9906 18.7333 27.5933 19.928C30.1959 21.1227 32.2013 22.808 33.6093 24.984C35.0599 27.1173 35.7853 29.6133 35.7853 32.472V33.24C35.7853 36.0987 35.0599 38.6587 33.6093 40.92C32.2013 43.1813 30.1746 44.9733 27.5293 46.296C24.9266 47.576 21.7906 48.216 18.1213 48.216Z" fill="#1F798F"/>
</svg>
