<svg width="35" height="49" viewBox="0 0 35 49" fill="none" xmlns="http://www.w3.org/2000/svg">
<path d="M1.12125 49V39.4C1.12125 37.3947 1.44125 35.6453 2.08125 34.152C2.76392 32.6587 3.83058 31.336 5.28125 30.184C6.73192 28.9893 8.65192 27.88 11.0413 26.856L18.5933 23.592C20.5133 22.7813 21.9213 21.7787 22.8173 20.584C23.7559 19.3893 24.2253 17.8747 24.2253 16.04C24.2253 14.1627 23.6493 12.6267 22.4973 11.432C21.3453 10.2373 19.6599 9.64 17.4413 9.64C15.2226 9.64 13.5373 10.2587 12.3853 11.496C11.2333 12.7333 10.6573 14.3973 10.6573 16.488H0.48125C0.48125 13.544 1.12125 10.8987 2.40125 8.552C3.68125 6.16267 5.57992 4.28533 8.09725 2.92C10.6146 1.55466 13.7293 0.871998 17.4413 0.871998C21.1533 0.871998 24.2466 1.53333 26.7213 2.856C29.2386 4.17866 31.1373 5.94933 32.4173 8.168C33.7399 10.3867 34.4013 12.8827 34.4013 15.656V16.424C34.4013 20.008 33.4199 22.9733 31.4573 25.32C29.4946 27.624 26.4653 29.672 22.3693 31.464L14.8813 34.728C13.6013 35.2827 12.6839 35.8587 12.1293 36.456C11.6173 37.0533 11.3613 37.864 11.3613 38.888V42.088L8.86525 39.976H34.4653V49H1.12125Z" fill="#1F798F"/>
</svg>
