<svg width="24" height="30" viewBox="0 0 24 30" fill="none" xmlns="http://www.w3.org/2000/svg">
<path d="M2.92205 0.35498C1.30824 0.35498 0 1.58438 0 3.10093V26.8992C0 28.4157 1.30824 29.6451 2.92205 29.6451H20.4543C22.0681 29.6451 23.3764 28.4157 23.3764 26.8992V3.10093C23.3764 1.58438 22.0681 0.35498 20.4543 0.35498H2.92205ZM16.7334 9.49339L16.5583 9.50814H6.81811C6.28018 9.50814 5.84409 9.09834 5.84409 8.59283C5.84409 8.14348 6.18866 7.76976 6.64302 7.69227L6.81811 7.67751H16.5583C17.0961 7.67751 17.5323 8.08732 17.5323 8.59283C17.5323 9.04217 17.1877 9.4159 16.7334 9.49339ZM16.7334 15.9005L16.5583 15.9154H6.81811C6.28018 15.9154 5.84409 15.5055 5.84409 15C5.84409 14.5507 6.18866 14.177 6.64302 14.0995L6.81811 14.0847H16.5583C17.0961 14.0847 17.5323 14.4945 17.5323 15C17.5323 15.4495 17.1877 15.8231 16.7334 15.9005ZM16.7334 22.3077L16.5583 22.3226H6.81811C6.28018 22.3226 5.84409 21.9127 5.84409 21.4073C5.84409 20.9578 6.18866 20.5842 6.64302 20.5068L6.81811 20.4919H16.5583C17.0961 20.4919 17.5323 20.9018 17.5323 21.4073C17.5323 21.8567 17.1877 22.2303 16.7334 22.3077Z" fill="white"/>
</svg>
