<svg width="16" height="12" viewBox="0 0 16 12" fill="none" xmlns="http://www.w3.org/2000/svg">
<path d="M8.52071 6.53134C8.93671 6.382 9.32071 6.24067 9.70337 6.10867C9.78737 6.07807 9.87787 6.06985 9.966 6.08481C10.0541 6.09978 10.1369 6.1374 10.206 6.194C11.166 6.93067 11.6794 7.90467 11.71 9.11267C11.732 9.97067 11.7147 10.8307 11.7147 11.6893V11.8307H4.26271V11.682C4.26271 10.8393 4.25004 9.99667 4.26271 9.15467C4.28471 7.93267 4.79604 6.94667 5.76137 6.19933C5.94604 6.05733 6.14138 6.05934 6.35671 6.13734C6.68271 6.25534 7.01471 6.35867 7.34804 6.45267C7.45471 6.48267 7.45538 6.538 7.45471 6.61933C7.45471 7.46733 7.45471 8.31533 7.45471 9.16333C7.45111 9.28061 7.48663 9.39575 7.55567 9.49062C7.62471 9.58549 7.72335 9.65469 7.83604 9.68734C7.94193 9.72368 8.05702 9.72303 8.1625 9.68549C8.26797 9.64795 8.35759 9.57574 8.41671 9.48067C8.47917 9.37153 8.5131 9.2484 8.51538 9.12267C8.52404 8.308 8.52004 7.49334 8.52004 6.67867L8.52071 6.53134Z" fill="#4A4A4A"/>
<path d="M7.99275 5.45466C7.46615 5.45453 6.95143 5.29813 6.51378 5.00528C6.07612 4.71243 5.73521 4.29629 5.53421 3.80956C5.33321 3.32283 5.28116 2.7874 5.38466 2.27108C5.48815 1.75475 5.74254 1.28075 6.1156 0.909085C6.48866 0.537425 6.96362 0.284828 7.48033 0.183276C7.99705 0.0817236 8.53228 0.135785 9.01825 0.338616C9.50421 0.541447 9.91906 0.883924 10.2103 1.32268C10.5015 1.76144 10.6559 2.27674 10.6541 2.80333C10.65 3.50699 10.368 4.18053 9.86952 4.67717C9.37102 5.1738 8.69642 5.45327 7.99275 5.45466Z" fill="#4A4A4A"/>
<path d="M12.1768 6.83467C12.2593 6.84937 12.341 6.86851 12.4214 6.892C12.9977 7.10633 13.6318 7.10633 14.2081 6.892C14.3058 6.85281 14.4121 6.83982 14.5164 6.85432C14.6207 6.86882 14.7194 6.9103 14.8028 6.97467C15.5594 7.512 15.9601 8.24134 15.9754 9.16734C15.9874 9.86467 15.9788 10.5627 15.9754 11.2607C15.9754 11.6207 15.7568 11.84 15.3974 11.8407C14.5308 11.8407 13.6694 11.8407 12.7814 11.8407V11.6573C12.7814 10.8707 12.7774 10.0847 12.7814 9.29801C12.7952 8.48771 12.6063 7.68682 12.2321 6.968C12.2154 6.93534 12.2034 6.90134 12.1768 6.83467Z" fill="#4A4A4A"/>
<path d="M3.81615 6.83467C3.52646 7.35075 3.33415 7.9157 3.24881 8.50134C3.21784 8.72047 3.20114 8.94138 3.19881 9.16267C3.19348 9.98734 3.19881 10.8127 3.19881 11.638V11.8347C3.13215 11.8347 3.08148 11.8427 3.02815 11.8427C2.21881 11.8427 1.4097 11.8427 0.600815 11.8427C0.218815 11.8427 0.00481481 11.6287 0.00414815 11.2473C0.00414815 10.5547 -0.00518518 9.86267 0.00414815 9.17C0.0201481 8.222 0.436149 7.48467 1.21815 6.95067C1.29235 6.89671 1.37894 6.86231 1.46994 6.85066C1.56095 6.83901 1.65342 6.85048 1.73881 6.884C2.33525 7.10864 2.99304 7.10864 3.58948 6.884C3.66407 6.86338 3.73974 6.84691 3.81615 6.83467Z" fill="#4A4A4A"/>
<path d="M2.67206 2.26267C3.09322 2.26453 3.50435 2.39131 3.8534 2.62698C4.20246 2.86264 4.47373 3.19658 4.63288 3.58651C4.79203 3.97644 4.8319 4.40483 4.74743 4.81743C4.66297 5.23003 4.45797 5.60829 4.15839 5.90432C3.85882 6.20034 3.47814 6.40081 3.06456 6.48035C2.65098 6.55989 2.2231 6.51492 1.83509 6.35113C1.44709 6.18735 1.11641 5.91211 0.884925 5.56027C0.653442 5.20843 0.531565 4.79582 0.534728 4.37467C0.540355 3.81188 0.768146 3.27412 1.16848 2.87854C1.56881 2.48295 2.10925 2.26159 2.67206 2.26267Z" fill="#4A4A4A"/>
<path d="M15.4455 4.39268C15.4455 4.8144 15.3203 5.22664 15.0858 5.57714C14.8513 5.92765 14.518 6.20064 14.1282 6.36154C13.7384 6.52244 13.3095 6.56399 12.8961 6.48093C12.4826 6.39788 12.1031 6.19395 11.8056 5.895C11.5082 5.59605 11.3062 5.21552 11.2252 4.80164C11.1442 4.38776 11.1879 3.95916 11.3508 3.57014C11.5136 3.18113 11.7883 2.84921 12.14 2.61645C12.4916 2.38369 12.9045 2.26056 13.3262 2.26268C13.889 2.26637 14.4275 2.4923 14.8245 2.89126C15.2215 3.29022 15.4447 3.82987 15.4455 4.39268Z" fill="#4A4A4A"/>
</svg>
