<svg width="19" height="22" viewBox="0 0 19 22" fill="none" xmlns="http://www.w3.org/2000/svg">
<path d="M15.9043 13.989V2.83733C15.9043 0.95896 14.9652 0 13.1066 0H5.37561C4.2387 0 3.4577 0.385561 3.04247 1.13691L15.9043 13.989ZM2.57783 6.07011V19.9998C2.57783 20.7709 2.96339 21.2059 3.62576 21.2059C4.11018 21.2059 4.39688 20.929 5.28664 20.0689L9.15214 16.2628C9.20157 16.2133 9.29055 16.2133 9.33009 16.2628L13.1956 20.0689C14.0854 20.929 14.3721 21.2059 14.8565 21.2059C15.5188 21.2059 15.9043 20.7709 15.9043 19.9998V19.4165L2.57783 6.07011ZM17.7037 19.5055C18.0003 19.802 18.4847 19.802 18.7812 19.5055C19.0679 19.2088 19.0779 18.7244 18.7812 18.4278L1.3025 0.939187C1.00592 0.642602 0.51161 0.642602 0.215024 0.939187C-0.0716747 1.22589 -0.0716747 1.73008 0.215024 2.01678L17.7037 19.5055Z" fill="#2CA5C3"/>
</svg>
