<svg width="1920" height="816" viewBox="0 0 1920 816" fill="none" xmlns="http://www.w3.org/2000/svg">
<g opacity="0.3">
<path d="M0 803.55C0 803.55 54.2579 592.037 339.865 650.069C625.473 708.1 1245.14 1221.65 1933.27 747.185" stroke="#2CA5C3" stroke-width="0.4281" stroke-miterlimit="10"/>
<path d="M4.83966 829.488C4.83966 829.488 59.2735 603.167 357.974 658.534C656.674 713.902 1275.68 1193.23 1935.95 711.641" stroke="#2CA5C3" stroke-width="0.4281" stroke-miterlimit="10"/>
<path d="M9.67694 855.426C9.67694 855.426 64.2868 614.293 376.079 666.999C687.87 719.704 1306.21 1164.81 1938.63 676.098" stroke="#2CA5C3" stroke-width="0.4281" stroke-miterlimit="10"/>
<path d="M14.5165 881.362C14.5165 881.362 69.3044 625.421 394.187 675.463C719.07 725.504 1336.74 1136.39 1941.31 640.553" stroke="#2CA5C3" stroke-width="0.4281" stroke-miterlimit="10"/>
<path d="M19.3538 907.301C19.3538 907.301 74.3176 636.549 412.291 683.929C750.264 731.308 1367.27 1107.98 1943.99 605.011" stroke="#2CA5C3" stroke-width="0.4281" stroke-miterlimit="10"/>
<path d="M24.1935 933.237C24.1935 933.237 79.3332 647.676 430.399 692.393C781.465 737.108 1397.81 1079.55 1946.67 569.466" stroke="#2CA5C3" stroke-width="0.4281" stroke-miterlimit="10"/>
<path d="M29.0315 959.174C29.0315 959.174 84.3492 658.804 448.506 700.857C812.662 742.91 1428.34 1051.13 1949.35 533.923" stroke="#2CA5C3" stroke-width="0.4281" stroke-miterlimit="10"/>
<path d="M33.8711 985.113C33.8711 985.113 89.3648 669.932 466.614 709.323C843.863 748.715 1458.88 1022.72 1952.03 498.38" stroke="#2CA5C3" stroke-width="0.4281" stroke-miterlimit="10"/>
<path d="M38.7084 1011.05C38.7084 1011.05 94.378 681.06 484.72 717.787C875.059 754.514 1489.41 994.297 1954.71 462.836" stroke="#2CA5C3" stroke-width="0.4281" stroke-miterlimit="10"/>
<path d="M43.548 1036.99C43.548 1036.99 99.3956 692.186 502.828 726.251C906.259 760.316 1519.94 965.876 1957.39 427.29" stroke="#2CA5C3" stroke-width="0.4281" stroke-miterlimit="10"/>
<path d="M48.3853 1062.92C48.3853 1062.92 104.409 703.316 520.931 734.717C937.454 766.119 1550.47 937.458 1960.07 391.749" stroke="#2CA5C3" stroke-width="0.4281" stroke-miterlimit="10"/>
<path d="M53.2249 1088.86C53.2249 1088.86 109.427 714.442 539.039 743.181C968.652 771.921 1581.01 909.037 1962.75 356.204" stroke="#2CA5C3" stroke-width="0.4281" stroke-miterlimit="10"/>
<path d="M58.0645 1114.8C58.0645 1114.8 114.442 725.57 557.147 751.645C999.853 777.721 1611.54 880.619 1965.44 320.66" stroke="#2CA5C3" stroke-width="0.4281" stroke-miterlimit="10"/>
<path d="M62.9018 1140.74C62.9018 1140.74 119.455 736.699 575.253 760.112C1031.05 783.525 1642.07 852.201 1968.11 285.117" stroke="#2CA5C3" stroke-width="0.4281" stroke-miterlimit="10"/>
<path d="M67.7415 1166.67C67.7415 1166.67 124.473 747.827 593.361 768.576C1062.25 789.325 1672.61 823.78 1970.8 249.574" stroke="#2CA5C3" stroke-width="0.4281" stroke-miterlimit="10"/>
<path d="M72.5795 1192.61C72.5795 1192.61 129.487 758.952 611.468 777.04C1093.45 795.127 1703.14 795.359 1973.48 214.028" stroke="#2CA5C3" stroke-width="0.4281" stroke-miterlimit="10"/>
<path d="M77.4184 1218.55C77.4184 1218.55 134.502 770.083 629.573 785.506C1124.64 800.932 1733.67 766.943 1976.16 178.487" stroke="#2CA5C3" stroke-width="0.4281" stroke-miterlimit="10"/>
<path d="M82.2564 1244.49C82.2564 1244.49 139.518 781.209 647.68 793.97C1155.84 806.732 1764.21 738.522 1978.83 142.942" stroke="#2CA5C3" stroke-width="0.4281" stroke-miterlimit="10"/>
<path d="M87.096 1270.42C87.096 1270.42 144.533 792.335 665.788 802.434C1187.04 812.532 1794.74 710.101 1981.52 107.398" stroke="#2CA5C3" stroke-width="0.4281" stroke-miterlimit="10"/>
<path d="M91.9333 1296.36C91.9333 1296.36 149.549 803.466 683.894 810.901C1218.24 818.336 1825.27 681.683 1984.2 71.8552" stroke="#2CA5C3" stroke-width="0.4281" stroke-miterlimit="10"/>
<path d="M96.7729 1322.3C96.7729 1322.3 154.564 814.591 702.002 819.365C1249.44 824.138 1855.81 653.264 1986.88 36.3115" stroke="#2CA5C3" stroke-width="0.4281" stroke-miterlimit="10"/>
<path d="M101.61 1348.23C101.61 1348.23 159.578 825.719 720.107 827.829C1280.63 829.938 1886.34 624.844 1989.56 0.766113" stroke="#2CA5C3" stroke-width="0.4281" stroke-miterlimit="10"/>
</g>
</svg>
