<svg width="584" height="404" viewBox="0 0 584 404" fill="none" xmlns="http://www.w3.org/2000/svg">
<g opacity="0.1">
<path d="M150.335 546.152C150.335 546.152 118.74 475.112 211.299 428.195C303.858 381.278 590.346 387.706 677.599 103.175" stroke="#2CA5C3" stroke-width="0.4281" stroke-miterlimit="10"/>
<path d="M157.419 552.324C157.419 552.324 122.599 477.111 218.225 426.557C313.85 376.003 592.589 373.025 670.493 92.6594" stroke="#2CA5C3" stroke-width="0.4281" stroke-miterlimit="10"/>
<path d="M164.501 558.497C164.501 558.497 126.458 479.11 225.15 424.92C323.842 370.73 594.833 358.344 663.386 82.1456" stroke="#2CA5C3" stroke-width="0.4281" stroke-miterlimit="10"/>
<path d="M171.583 564.666C171.583 564.666 130.317 481.106 232.075 423.279C333.833 365.452 597.076 343.66 656.278 71.6273" stroke="#2CA5C3" stroke-width="0.4281" stroke-miterlimit="10"/>
<path d="M178.666 570.84C178.666 570.84 134.176 483.107 239 421.644C343.824 360.181 599.319 328.981 649.171 61.1157" stroke="#2CA5C3" stroke-width="0.4281" stroke-miterlimit="10"/>
<path d="M185.749 577.01C185.749 577.01 138.035 485.103 245.926 420.004C353.817 354.903 601.563 314.298 642.065 50.5982" stroke="#2CA5C3" stroke-width="0.4281" stroke-miterlimit="10"/>
<path d="M192.832 583.182C192.832 583.182 141.895 487.101 252.852 418.365C363.809 349.629 603.806 299.615 634.958 40.0831" stroke="#2CA5C3" stroke-width="0.4281" stroke-miterlimit="10"/>
<path d="M199.915 589.356C199.915 589.356 145.754 489.102 259.778 416.729C373.801 344.356 606.051 284.936 627.852 29.5696" stroke="#2CA5C3" stroke-width="0.4281" stroke-miterlimit="10"/>
<path d="M206.998 595.525C206.998 595.525 149.613 491.098 266.704 415.088C383.793 339.079 608.294 270.252 620.745 19.0525" stroke="#2CA5C3" stroke-width="0.4281" stroke-miterlimit="10"/>
<path d="M214.081 601.697C214.081 601.697 153.473 493.096 273.63 413.45C393.786 333.804 610.538 255.571 613.639 8.53699" stroke="#2CA5C3" stroke-width="0.4281" stroke-miterlimit="10"/>
<path d="M221.164 607.87C221.164 607.87 157.333 495.095 280.555 411.813C403.777 328.53 612.782 240.89 606.532 -1.97667" stroke="#2CA5C3" stroke-width="0.4281" stroke-miterlimit="10"/>
<path d="M228.247 614.041C228.247 614.041 161.193 497.092 287.481 410.174C413.769 323.255 615.025 226.208 599.426 -12.4931" stroke="#2CA5C3" stroke-width="0.4281" stroke-miterlimit="10"/>
<path d="M235.328 620.213C235.328 620.213 165.05 499.091 294.405 408.535C423.759 317.979 617.267 211.526 592.318 -23.0086" stroke="#2CA5C3" stroke-width="0.4281" stroke-miterlimit="10"/>
<path d="M242.413 626.386C242.413 626.386 168.911 501.09 301.333 406.898C433.754 312.706 619.513 196.846 585.213 -33.5227" stroke="#2CA5C3" stroke-width="0.4281" stroke-miterlimit="10"/>
<path d="M249.494 632.557C249.494 632.557 172.769 503.088 308.257 405.259C443.744 307.43 621.755 182.163 578.105 -44.0383" stroke="#2CA5C3" stroke-width="0.4281" stroke-miterlimit="10"/>
<path d="M256.577 638.729C256.577 638.729 176.629 505.087 315.183 403.621C453.736 302.156 623.999 167.482 570.999 -54.5534" stroke="#2CA5C3" stroke-width="0.4281" stroke-miterlimit="10"/>
<path d="M263.66 644.901C263.66 644.901 180.488 507.085 322.108 401.983C463.728 296.881 626.243 152.801 563.892 -65.0685" stroke="#2CA5C3" stroke-width="0.4281" stroke-miterlimit="10"/>
<path d="M270.743 651.071C270.743 651.071 184.348 509.081 329.034 400.343C473.72 291.605 628.487 138.117 556.785 -75.5854" stroke="#2CA5C3" stroke-width="0.4281" stroke-miterlimit="10"/>
<path d="M277.826 657.243C277.826 657.243 188.207 511.08 335.96 398.705C483.712 286.33 630.73 123.436 549.679 -86.0999" stroke="#2CA5C3" stroke-width="0.4281" stroke-miterlimit="10"/>
<path d="M284.91 663.416C284.91 663.416 192.067 513.079 342.886 397.068C493.705 281.057 632.974 108.755 542.573 -96.6141" stroke="#2CA5C3" stroke-width="0.4281" stroke-miterlimit="10"/>
<path d="M291.992 669.588C291.992 669.588 195.926 515.077 349.812 395.429C503.697 275.782 635.218 94.0739 535.467 -107.13" stroke="#2CA5C3" stroke-width="0.4281" stroke-miterlimit="10"/>
<path d="M299.074 675.759C299.074 675.759 199.784 517.075 356.736 393.79C513.687 270.506 637.461 79.391 528.358 -117.646" stroke="#2CA5C3" stroke-width="0.4281" stroke-miterlimit="10"/>
</g>
</svg>
