<svg width="32" height="30" viewBox="0 0 32 30" fill="none" xmlns="http://www.w3.org/2000/svg">
<path d="M17.3218 16.3317C19.5309 16.3317 21.3217 18.1226 21.3217 20.3317L21.3196 22.3273C21.5939 27.2247 17.8219 29.667 10.827 29.667C3.85465 29.667 0 27.2566 0 22.3972V20.3317C0 18.1226 1.79083 16.3317 3.99993 16.3317H17.3218ZM27.9898 16.3317C30.1989 16.3317 31.9898 18.1226 31.9898 20.3317L31.9878 21.7358C32.2289 26.129 28.8959 28.3315 22.8038 28.3315C21.9768 28.3315 21.1994 28.2912 20.4734 28.2106C21.9046 26.889 22.6702 25.0955 22.6676 22.8291L22.6508 22.2527L22.655 20.3317C22.655 18.7382 21.9562 17.3079 20.8482 16.3306L27.9898 16.3317ZM10.6665 0.332031C14.3489 0.332031 17.3341 3.31723 17.3341 6.99965C17.3341 10.6821 14.3489 13.6673 10.6665 13.6673C6.98404 13.6673 3.99885 10.6821 3.99885 6.99965C3.99885 3.31723 6.98404 0.332031 10.6665 0.332031ZM23.9996 2.99865C26.945 2.99865 29.3328 5.38642 29.3328 8.33188C29.3328 11.2773 26.945 13.6651 23.9996 13.6651C21.0541 13.6651 18.6663 11.2773 18.6663 8.33188C18.6663 5.38642 21.0541 2.99865 23.9996 2.99865Z" fill="white"/>
</svg>
