<svg width="25" height="11" viewBox="0 0 25 11" fill="none" xmlns="http://www.w3.org/2000/svg">
<path fill-rule="evenodd" clip-rule="evenodd" d="M20.8265 5.34807C20.8265 5.73337 20.4485 6.04574 19.9822 6.04574H4.22158C3.75528 6.04574 3.37727 5.73337 3.37727 5.34807C3.37727 4.96276 3.75528 4.65039 4.22158 4.65039H19.9822C20.4485 4.65039 20.8265 4.96276 20.8265 5.34807Z" fill="white"/>
<path fill-rule="evenodd" clip-rule="evenodd" d="M24.2038 0.697674C24.2038 1.08299 23.8257 1.39535 23.3594 1.39535H0.844317C0.378018 1.39535 0 1.08299 0 0.697674C0 0.312363 0.378018 0 0.844317 0H23.3594C23.8257 0 24.2038 0.312363 24.2038 0.697674ZM17.4492 10C17.4492 10.3853 17.0712 10.6977 16.6049 10.6977H7.59885C7.13255 10.6977 6.75454 10.3853 6.75454 10C6.75454 9.6147 7.13255 9.30233 7.59885 9.30233H16.6049C17.0712 9.30233 17.4492 9.6147 17.4492 10Z" fill="white"/>
</svg>
