<svg width="21" height="21" viewBox="0 0 21 21" fill="none" xmlns="http://www.w3.org/2000/svg">
<path fill-rule="evenodd" clip-rule="evenodd" d="M13.8488 9.39881L11.6029 7.15298L13.2263 5.52881L15.4713 7.77381L13.8488 9.39881ZM8.06625 15.1871L5.58542 15.413L5.80542 12.9496L10.4863 8.26881L12.7329 10.5155L8.06625 15.1871ZM16.6696 6.61465L16.6688 6.61381L14.3871 4.33215C13.7696 3.71631 12.7088 3.68715 12.1238 4.27465L4.62709 11.7713C4.35542 12.0421 4.18709 12.4021 4.15209 12.783L3.83625 16.258C3.81459 16.5038 3.90209 16.7471 4.07709 16.9221C4.23459 17.0796 4.44709 17.1663 4.66625 17.1663C4.69209 17.1663 4.71709 17.1655 4.74209 17.163L8.21709 16.8471C8.59875 16.8121 8.95792 16.6446 9.22875 16.3738L16.7263 8.87631C17.3329 8.26798 17.3071 7.25298 16.6696 6.61465Z" fill="white"/>
</svg>
