<svg width="32" height="32" viewBox="0 0 32 32" fill="none" xmlns="http://www.w3.org/2000/svg">
<path d="M4.57144 4.57143C4.57144 2.0467 6.61814 0 9.14287 0C11.6676 0 13.7143 2.0467 13.7143 4.57143C13.7143 6.04517 13.0169 7.35602 11.9342 8.192C11.9016 8.21602 11.8692 8.24034 11.8371 8.26491C11.0816 8.81698 10.1503 9.14286 9.14287 9.14286C6.61814 9.14286 4.57144 7.09616 4.57144 4.57143Z" fill="white"/>
<path d="M20.0658 8.192C20.0984 8.21602 20.1308 8.24034 20.1629 8.26494C20.9184 8.81701 21.8498 9.14286 22.8571 9.14286C25.3819 9.14286 27.4286 7.09616 27.4286 4.57143C27.4286 2.0467 25.3819 0 22.8571 0C20.3324 0 18.2857 2.0467 18.2857 4.57143C18.2857 6.04517 18.9831 7.35602 20.0658 8.192Z" fill="white"/>
<path d="M12.0401 11.4283C12.8305 10.0619 14.3079 9.14258 16 9.14258C17.6921 9.14258 19.1694 10.0619 19.9599 11.4283C20.3488 12.1007 20.5714 12.8813 20.5714 13.714C20.5714 16.2387 18.5247 18.2854 16 18.2854C13.4753 18.2854 11.4286 16.2387 11.4286 13.714C11.4286 12.8813 11.6512 12.1007 12.0401 11.4283Z" fill="white"/>
<path d="M3.42853 11.4287H9.53305C9.28034 12.1436 9.14286 12.913 9.14286 13.7144C9.14286 15.4707 9.80309 17.0727 10.8889 18.2859H10.2857C7.80535 18.2859 5.69417 19.8662 4.90393 22.0747C4.12688 21.7585 3.40795 21.3455 2.77063 20.834C1.04907 19.4522 0 17.4083 0 14.8573C0 12.9638 1.53499 11.4287 3.42853 11.4287Z" fill="white"/>
<path d="M21.7143 18.2859C24.1945 18.2859 26.3058 19.8661 27.096 22.0747C27.8731 21.7585 28.592 21.3455 29.2295 20.834C30.9509 19.4522 32 17.4083 32 14.8573C32 12.9637 30.4649 11.4287 28.5714 11.4287H22.467C22.7195 12.1436 22.8571 12.913 22.8571 13.7144C22.8571 15.4707 22.1968 17.0727 21.1111 18.2859H21.7143Z" fill="white"/>
<path d="M24.8848 22.6924C25.051 23.0954 25.1429 23.537 25.1429 23.9999C25.1429 26.5509 24.0937 28.5948 22.3723 29.9765C20.6779 31.3365 18.407 31.9999 16 31.9999C13.593 31.9999 11.3221 31.3365 9.62778 29.9765C7.90622 28.5948 6.85715 26.5509 6.85715 23.9999C6.85715 23.537 6.94892 23.0954 7.11525 22.6924C7.62922 21.4474 8.85511 20.5713 10.2857 20.5713H21.7143C23.1449 20.5713 24.3707 21.4474 24.8848 22.6924Z" fill="white"/>
</svg>
