<svg width="23" height="26" viewBox="0 0 23 26" fill="none" xmlns="http://www.w3.org/2000/svg">
<g filter="url(#filter0_d_1_3434)">
<path fill-rule="evenodd" clip-rule="evenodd" d="M14.8497 9.39881L12.6039 7.15298L14.2272 5.52881L16.4722 7.77381L14.8497 9.39881ZM9.06723 15.1871L6.5864 15.413L6.8064 12.9496L11.4872 8.26881L13.7339 10.5155L9.06723 15.1871ZM17.6706 6.61465L17.6697 6.61381L15.3881 4.33215C14.7706 3.71631 13.7097 3.68715 13.1247 4.27465L5.62806 11.7713C5.3564 12.0421 5.18806 12.4021 5.15306 12.783L4.83723 16.258C4.81556 16.5038 4.90306 16.7471 5.07806 16.9221C5.23556 17.0796 5.44806 17.1663 5.66723 17.1663C5.69306 17.1663 5.71806 17.1655 5.74306 17.163L9.21806 16.8471C9.59973 16.8121 9.9589 16.6446 10.2297 16.3738L17.7272 8.87631C18.3339 8.26798 18.3081 7.25298 17.6706 6.61465Z" fill="white"/>
</g>
<defs>
<filter id="filter0_d_1_3434" x="-2.5" y="0.5" width="28" height="28" filterUnits="userSpaceOnUse" color-interpolation-filters="sRGB">
<feFlood flood-opacity="0" result="BackgroundImageFix"/>
<feColorMatrix in="SourceAlpha" type="matrix" values="0 0 0 0 0 0 0 0 0 0 0 0 0 0 0 0 0 0 127 0" result="hardAlpha"/>
<feOffset dy="4"/>
<feGaussianBlur stdDeviation="2"/>
<feComposite in2="hardAlpha" operator="out"/>
<feColorMatrix type="matrix" values="0 0 0 0 0 0 0 0 0 0 0 0 0 0 0 0 0 0 0.25 0"/>
<feBlend mode="normal" in2="BackgroundImageFix" result="effect1_dropShadow_1_3434"/>
<feBlend mode="normal" in="SourceGraphic" in2="effect1_dropShadow_1_3434" result="shape"/>
</filter>
</defs>
</svg>
