<svg width="40" height="40" viewBox="0 0 40 40" fill="none" xmlns="http://www.w3.org/2000/svg">
<g clip-path="url(#clip0_1_526)">
<path d="M20 39.9805C30.9412 39.9805 40 30.9065 40 19.9902C40 9.05441 30.9215 0 19.9804 0C9.05882 0 0 9.05441 0 19.9902C0 30.9065 9.07841 39.9805 20 39.9805ZM17.8039 29.5737C17.1372 29.5737 16.5882 29.2994 16.0784 28.6135L11.1568 22.5772C10.8627 22.1853 10.6863 21.754 10.6863 21.3033C10.6863 20.4214 11.3725 19.6963 12.2549 19.6963C12.8235 19.6963 13.2549 19.8726 13.7451 20.5194L17.7255 25.6541L26.0979 12.2097C26.4706 11.6218 26.9804 11.3082 27.4901 11.3082C28.3529 11.3082 29.1569 11.8961 29.1569 12.8173C29.1569 13.2484 28.9019 13.6992 28.6665 14.1108L19.451 28.6135C19.0392 29.2603 18.4706 29.5737 17.8039 29.5737Z" fill="white"/>
</g>
<defs>
<clipPath id="clip0_1_526">
<rect width="40" height="40" fill="white"/>
</clipPath>
</defs>
</svg>
