<svg width="94" height="80" viewBox="0 0 94 80" fill="none" xmlns="http://www.w3.org/2000/svg">
<g clip-path="url(#clip0_1_54)">
<path d="M7.35632 29.6092H12.8736V34.9426H7.35632V29.6092ZM16.1839 29.6092H21.5173V34.9426H16.1839V29.6092ZM7.35632 38.069H12.6897V43.5862H7.35632V38.069ZM16.1839 38.069H21.7012V43.5862H16.1839V38.069ZM7.35632 46.8966H12.6897V52.2299H7.35632V46.8966ZM16.1839 46.8966H21.7012V52.2299H16.1839V46.8966ZM7.35632 55.1724H12.6897V60.6897H7.35632V55.1724ZM16.1839 55.1724H21.7012V60.6897H16.1839V55.1724ZM7.35632 64H12.6897V69.3334H7.35632V64ZM16.1839 64H21.7012V69.3334H16.1839V64Z" fill="white"/>
<path d="M93.4253 21.1494H67.8621V0H25.5632V21.1494H0V80H93.4253V21.1494ZM25.5632 76.6897H3.12643V24.4598H25.5632L25.5632 76.6897ZM53.3333 76.8736H40.0919V57.5632H53.3333V76.8736ZM36.9655 54.2529V76.8735H28.8736V3.12643H64.5517L64.3678 76.8736H56.6437V54.2529H36.9655V54.2529ZM90.115 76.6897H67.8621V24.4598H90.115V76.6897Z" fill="white"/>
<path d="M71.9081 29.6092H77.2414V34.9425H71.9081V29.6092ZM80.5517 29.6092H86.069V34.9425H80.5517V29.6092ZM71.7241 38.069H77.2414V43.5862H71.7241V38.069ZM80.7357 38.069H86.069V43.5862H80.7357V38.069ZM71.7241 46.8966H77.2414V52.2299H71.7241V46.8966ZM80.7357 46.8966H86.069V52.2299H80.7357V46.8966ZM71.7241 55.1724H77.2414V60.6897H71.7241V55.1724ZM80.7357 55.1724H86.069V60.6897H80.7357V55.1724ZM71.7241 64H77.2414V69.3334H71.7241V64ZM80.7357 64H86.069V69.3334H80.7357V64ZM33.1035 25.931H38.6207V31.2644H33.1035V25.931ZM54.4368 25.931H59.954V31.2644H54.4368V25.931ZM33.1035 34.3908H38.6207V39.9081H33.1035V34.3908ZM54.6207 34.3908H59.9541V39.9081H54.6207V34.3908ZM33.1035 43.2184H38.6207V48.5517H33.1035V43.2184ZM54.6207 43.2184H59.9541V48.5517H54.6207V43.2184ZM43.7701 25.7471H49.2874V31.2644H43.7701V25.7471ZM33.1035 17.2874H38.6207V22.6207H33.1035V17.2874ZM54.4368 17.2874H59.954V22.6207H54.4368V17.2874ZM43.7701 17.2874H49.2874V22.6207H43.7701V17.2874ZM33.1035 8.64368H38.6207V13.977H33.1035V8.64368ZM54.4368 8.64368H59.954V13.977H54.4368V8.64368ZM43.7701 8.64368H49.2874V13.977H43.7701V8.64368ZM43.7701 34.3908H49.2874V39.7242H43.7701V34.3908ZM43.7701 43.0345H49.2874V48.5517H43.7701V43.0345Z" fill="white"/>
</g>
<defs>
<clipPath id="clip0_1_54">
<rect width="93.4253" height="80" fill="white"/>
</clipPath>
</defs>
</svg>
