<svg width="89" height="80" viewBox="0 0 89 80" fill="none" xmlns="http://www.w3.org/2000/svg">
<path d="M65.8194 80H1.33779C0.535117 80 0 79.4649 0 78.6622V1.33779C0 0.535117 0.535117 0 1.33779 0H65.8194C66.6221 0 67.1572 0.535117 67.1572 1.33779V37.8595C67.1572 38.6622 66.6221 39.1973 65.8194 39.1973C65.0167 39.1973 64.4816 38.6622 64.4816 37.8595V2.67559H2.67559V77.3244H64.4816V66.2207C64.4816 65.4181 65.0167 64.8829 65.8194 64.8829C66.6221 64.8829 67.1572 65.4181 67.1572 66.2207V78.6622C67.1572 79.3311 66.4883 80 65.8194 80Z" fill="white"/>
<path d="M17.7925 18.7291C14.448 18.7291 11.7724 16.0535 11.7724 12.709C11.7724 9.36455 14.448 6.68896 17.7925 6.68896C21.1369 6.68896 23.8125 9.36455 23.8125 12.709C23.8125 16.0535 21.1369 18.7291 17.7925 18.7291ZM17.7925 9.23077C15.9196 9.23077 14.448 10.7023 14.448 12.5753C14.448 14.4482 15.9196 15.9197 17.7925 15.9197C19.6654 15.9197 21.1369 14.4482 21.1369 12.5753C21.1369 10.8361 19.6654 9.23077 17.7925 9.23077Z" fill="white"/>
<path d="M28.8964 32.7759H6.68905C5.88637 32.7759 5.35126 32.2408 5.35126 31.4381C5.35126 26.087 8.69574 21.4047 13.7794 19.6656C14.3145 19.5318 14.9834 19.6656 15.2509 20.2007C15.786 21.0034 16.7225 21.4047 17.6589 21.4047C18.5954 21.4047 19.5319 21.0034 20.2008 20.2007C20.6021 19.6656 21.1372 19.5318 21.6723 19.6656C26.7559 21.4047 30.1004 26.087 30.1004 31.4381C30.2342 32.107 29.6991 32.7759 28.8964 32.7759ZM8.16062 30.1003H27.5586C27.1573 26.7559 24.883 23.8127 21.8061 22.4749C20.7359 23.5452 19.3981 24.0803 17.7927 24.0803C16.3212 24.0803 14.8496 23.5452 13.9131 22.4749C10.7024 23.8127 8.56196 26.7559 8.16062 30.1003Z" fill="white"/>
<path d="M57.6592 11.2375H37.0572C36.2545 11.2375 35.7194 10.7024 35.7194 9.89968C35.7194 9.09701 36.2545 8.56189 37.0572 8.56189H57.6592C58.4619 8.56189 58.997 9.09701 58.997 9.89968C58.997 10.7024 58.3281 11.2375 57.6592 11.2375Z" fill="white"/>
<path d="M57.6592 21.5385H37.0572C36.2545 21.5385 35.7194 21.0034 35.7194 20.2007C35.7194 19.398 36.2545 18.8629 37.0572 18.8629H57.6592C58.4619 18.8629 58.997 19.398 58.997 20.2007C58.997 21.0034 58.3281 21.5385 57.6592 21.5385Z" fill="white"/>
<path d="M57.6592 31.8395H37.0572C36.2545 31.8395 35.7194 31.3044 35.7194 30.5017C35.7194 29.699 36.2545 29.1639 37.0572 29.1639H57.6592C58.4619 29.1639 58.997 29.699 58.997 30.5017C58.997 31.3044 58.3281 31.8395 57.6592 31.8395Z" fill="white"/>
<path d="M44.1472 42.1405H6.68905C5.88637 42.1405 5.35126 41.6054 5.35126 40.8027C5.35126 40 5.88637 39.4649 6.68905 39.4649H44.1472C44.9499 39.4649 45.485 40 45.485 40.8027C45.485 41.6054 44.8161 42.1405 44.1472 42.1405Z" fill="white"/>
<path d="M41.0703 52.5753H6.68905C5.88637 52.5753 5.35126 52.0402 5.35126 51.2375C5.35126 50.4348 5.88637 49.8997 6.68905 49.8997H41.0703C41.873 49.8997 42.4081 50.4348 42.4081 51.2375C42.4081 52.0402 41.873 52.5753 41.0703 52.5753Z" fill="white"/>
<path d="M44.1472 62.8763H6.68905C5.88637 62.8763 5.35126 62.3412 5.35126 61.5385C5.35126 60.7358 5.88637 60.2007 6.68905 60.2007H44.1472C44.9499 60.2007 45.485 60.7358 45.485 61.5385C45.485 62.3412 44.8161 62.8763 44.1472 62.8763Z" fill="white"/>
<path d="M57.6589 73.1773H6.68905C5.88637 73.1773 5.35126 72.6421 5.35126 71.8395C5.35126 71.0368 5.88637 70.5017 6.68905 70.5017H57.6589C58.4616 70.5017 58.9967 71.0368 58.9967 71.8395C58.9967 72.6421 58.3278 73.1773 57.6589 73.1773Z" fill="white"/>
<path d="M62.2075 67.9599C58.0603 67.9599 54.0469 66.3545 50.97 63.2776C47.8931 60.2007 46.2878 56.3211 46.2878 52.0401C46.2878 47.7592 47.8931 43.7458 50.97 40.8027C53.9132 37.8595 57.9265 36.1204 62.2075 36.1204C66.4884 36.1204 70.5018 37.7257 73.4449 40.8027C78.7961 46.1538 79.5988 54.5819 75.4516 60.8696C74.9165 61.806 74.1138 62.6087 73.4449 63.4114C72.6423 64.0803 71.8396 64.7492 70.9031 65.4181C68.2276 67.1572 65.2844 67.9599 62.2075 67.9599ZM62.2075 38.796C58.7292 38.796 55.3847 40.1338 52.8429 42.6756C50.3011 45.2174 48.9633 48.5619 48.9633 52.0401C48.9633 55.5184 50.3011 58.8629 52.8429 61.4047C57.2577 65.8194 64.2142 66.4883 69.4316 63.1438C70.1005 62.6087 70.9031 62.0736 71.572 61.4047C72.2409 60.7358 72.776 60.0669 73.3112 59.2642C76.7894 54.0468 75.9867 47.0903 71.572 42.6756C69.0302 40.1338 65.6857 38.796 62.2075 38.796Z" fill="white"/>
<path d="M83.0773 78.1271H82.9435C81.4719 78.1271 80.1341 77.4582 79.1977 76.388L69.1642 65.1505C68.8967 64.8829 68.7629 64.4816 68.8967 64.0803C68.8967 63.6789 69.1643 63.4114 69.4318 63.1438C70.2345 62.6087 70.9034 62.0736 71.5723 61.4047C72.2412 60.7358 72.7763 60.0669 73.3114 59.2642C73.579 58.9967 73.8465 58.7291 74.2479 58.7291C74.6492 58.7291 75.0505 58.8629 75.3181 58.9967L86.5555 69.0301C87.6258 69.9666 88.2947 71.3043 88.2947 72.7759C88.2947 74.2475 87.7596 75.5853 86.8231 76.5217C85.7529 77.592 84.5489 78.1271 83.0773 78.1271ZM72.2412 64.4816L81.3382 74.6488C81.7395 75.1839 82.4084 75.4515 83.0773 75.4515C83.7462 75.4515 84.4151 75.1839 84.9502 74.7826C85.4853 74.3813 85.7529 73.5786 85.6191 72.9097C85.6191 72.2408 85.3515 71.5719 84.8164 71.1706L74.6492 62.0736C74.2479 62.4749 73.8465 62.8763 73.4452 63.2776C73.0438 63.6789 72.6425 64.0803 72.2412 64.4816Z" fill="white"/>
</svg>
